<svg
xmlns="http://www.w3.org/2000/svg"
xmlns:xlink="http://www.w3.org/1999/xlink"
width="72px" height="73px">
<defs>
<filter filterUnits="userSpaceOnUse" id="Filter_0" x="0px" y="0px" width="72px" height="73px"  >
	<feOffset in="SourceAlpha" dx="0" dy="8" />
	<feGaussianBlur result="blurOut" stdDeviation="2.828" />
	<feFlood flood-color="rgb(11, 92, 233)" result="floodOut" />
	<feComposite operator="atop" in="floodOut" in2="blurOut" />
	<feComponentTransfer><feFuncA type="linear" slope="0.4"/></feComponentTransfer>
	<feMerge>
		<feMergeNode/>
		<feMergeNode in="SourceGraphic"/>
	</feMerge>
</filter>
<linearGradient id="PSgrad_0" x1="0%" x2="65.606%" y1="0%" y2="75.471%">
	<stop offset="0%" stop-color="rgb(11,92,233)" stop-opacity="1" />
	<stop offset="100%" stop-color="rgb(115,32,249)" stop-opacity="1" />
</linearGradient>

</defs>
<g filter="url(#Filter_0)">
<path fill-rule="evenodd"  fill="rgb(142, 142, 142)"
	  d="M35.500,-0.000 C19.972,-0.000 7.000,12.929 7.000,28.500 C7.000,44.028 19.929,57.000 35.500,57.000 C51.028,57.000 64.000,44.071 64.000,28.500 C64.000,12.972 51.071,-0.000 35.500,-0.000 ZM17.788,46.212 C8.253,36.677 7.873,21.957 16.645,12.007 L22.931,18.293 C17.704,22.238 14.306,27.224 14.075,27.569 C13.696,28.132 13.696,28.868 14.075,29.431 C14.461,30.007 23.678,43.529 35.500,43.529 C39.037,43.529 42.340,42.318 45.244,40.606 L51.993,47.355 C42.043,56.126 27.323,55.747 17.788,46.212 ZM35.500,20.150 C33.801,20.150 32.219,20.662 30.899,21.537 L28.206,18.844 C30.460,17.627 32.929,16.811 35.500,16.811 C43.908,16.811 51.262,25.583 53.475,28.501 C52.242,30.132 49.408,33.585 45.680,36.318 L42.463,33.101 C43.338,31.781 43.850,30.199 43.850,28.500 C43.850,23.896 40.104,20.150 35.500,20.150 ZM33.341,23.980 C33.995,23.666 34.727,23.490 35.500,23.490 C38.262,23.490 40.510,25.738 40.510,28.500 C40.510,29.273 40.334,30.004 40.020,30.659 L33.341,23.980 ZM37.659,33.020 C37.004,33.334 36.272,33.510 35.500,33.510 C32.738,33.510 30.490,31.262 30.490,28.500 C30.490,27.727 30.666,26.995 30.980,26.341 L37.659,33.020 ZM28.537,23.899 C27.662,25.219 27.150,26.801 27.150,28.500 C27.150,33.104 30.896,36.850 35.500,36.850 C37.199,36.850 38.781,36.338 40.101,35.463 L42.794,38.155 C40.540,39.373 38.071,40.189 35.500,40.189 C27.091,40.189 19.737,31.416 17.524,28.499 C18.758,26.868 21.591,23.415 25.320,20.682 L28.537,23.899 ZM54.355,44.993 L48.069,38.708 C53.296,34.762 56.694,29.776 56.925,29.431 C57.303,28.868 57.303,28.132 56.925,27.569 C56.539,26.993 47.321,13.471 35.500,13.471 C31.963,13.471 28.659,14.682 25.756,16.394 L19.007,9.645 C23.775,5.442 29.637,3.339 35.500,3.339 C41.873,3.339 48.246,5.822 53.212,10.788 C62.747,20.323 63.126,35.043 54.355,44.993 Z"/>
</g>
<path fill="url(#PSgrad_0)"
  d="M35.500,-0.000 C19.972,-0.000 7.000,12.929 7.000,28.500 C7.000,44.028 19.929,57.000 35.500,57.000 C51.028,57.000 64.000,44.071 64.000,28.500 C64.000,12.972 51.071,-0.000 35.500,-0.000 ZM17.788,46.212 C8.253,36.677 7.873,21.957 16.645,12.007 L22.931,18.293 C17.704,22.238 14.306,27.224 14.075,27.569 C13.696,28.132 13.696,28.868 14.075,29.431 C14.461,30.007 23.678,43.529 35.500,43.529 C39.037,43.529 42.340,42.318 45.244,40.606 L51.993,47.355 C42.043,56.126 27.323,55.747 17.788,46.212 ZM35.500,20.150 C33.801,20.150 32.219,20.662 30.899,21.537 L28.206,18.844 C30.460,17.627 32.929,16.811 35.500,16.811 C43.908,16.811 51.262,25.583 53.475,28.501 C52.242,30.132 49.408,33.585 45.680,36.318 L42.463,33.101 C43.338,31.781 43.850,30.199 43.850,28.500 C43.850,23.896 40.104,20.150 35.500,20.150 ZM33.341,23.980 C33.995,23.666 34.727,23.490 35.500,23.490 C38.262,23.490 40.510,25.738 40.510,28.500 C40.510,29.273 40.334,30.004 40.020,30.659 L33.341,23.980 ZM37.659,33.020 C37.004,33.334 36.272,33.510 35.500,33.510 C32.738,33.510 30.490,31.262 30.490,28.500 C30.490,27.727 30.666,26.995 30.980,26.341 L37.659,33.020 ZM28.537,23.899 C27.662,25.219 27.150,26.801 27.150,28.500 C27.150,33.104 30.896,36.850 35.500,36.850 C37.199,36.850 38.781,36.338 40.101,35.463 L42.794,38.155 C40.540,39.373 38.071,40.189 35.500,40.189 C27.091,40.189 19.737,31.416 17.524,28.499 C18.758,26.868 21.591,23.415 25.320,20.682 L28.537,23.899 ZM54.355,44.993 L48.069,38.708 C53.296,34.762 56.694,29.776 56.925,29.431 C57.303,28.868 57.303,28.132 56.925,27.569 C56.539,26.993 47.321,13.471 35.500,13.471 C31.963,13.471 28.659,14.682 25.756,16.394 L19.007,9.645 C23.775,5.442 29.637,3.339 35.500,3.339 C41.873,3.339 48.246,5.822 53.212,10.788 C62.747,20.323 63.126,35.043 54.355,44.993 Z"/>
</svg>