<svg
xmlns="http://www.w3.org/2000/svg"
xmlns:xlink="http://www.w3.org/1999/xlink"
width="73px" height="74px">
<defs>
<filter filterUnits="userSpaceOnUse" id="Filter_0" x="0px" y="0px" width="73px" height="74px"  >
	<feOffset in="SourceAlpha" dx="0" dy="8" />
	<feGaussianBlur result="blurOut" stdDeviation="2.828" />
	<feFlood flood-color="rgb(11, 92, 233)" result="floodOut" />
	<feComposite operator="atop" in="floodOut" in2="blurOut" />
	<feComponentTransfer><feFuncA type="linear" slope="0.4"/></feComponentTransfer>
	<feMerge>
		<feMergeNode/>
		<feMergeNode in="SourceGraphic"/>
	</feMerge>
</filter>
<linearGradient id="PSgrad_0" x1="0%" x2="65.606%" y1="0%" y2="75.471%">
	<stop offset="0%" stop-color="rgb(11,92,233)" stop-opacity="1" />
	<stop offset="100%" stop-color="rgb(115,32,249)" stop-opacity="1" />
</linearGradient>

</defs>
<g filter="url(#Filter_0)">
<path fill-rule="evenodd"  fill="rgb(142, 142, 142)"
	  d="M58.354,53.167 L53.980,53.167 C52.979,53.167 52.167,52.355 52.167,51.354 C52.167,50.354 52.979,49.542 53.980,49.542 L58.354,49.542 C60.019,49.542 61.375,48.186 61.375,46.521 L61.375,12.083 L10.625,12.083 L10.625,46.521 C10.625,48.186 11.981,49.542 13.646,49.542 L18.020,49.542 C19.020,49.542 19.832,50.354 19.832,51.354 C19.832,52.355 19.020,53.167 18.020,53.167 L13.646,53.167 C9.980,53.167 7.000,50.187 7.000,46.521 L7.000,6.646 C7.000,2.980 9.980,-0.000 13.646,-0.000 L58.354,-0.000 C62.020,-0.000 65.000,2.980 65.000,6.646 L65.000,46.521 C65.000,50.187 62.020,53.167 58.354,53.167 ZM61.375,6.646 C61.375,4.981 60.019,3.625 58.354,3.625 L13.646,3.625 C11.981,3.625 10.625,4.981 10.625,6.646 L10.625,8.458 L61.375,8.458 L61.375,6.646 ZM22.730,28.579 L35.418,24.263 C35.795,24.133 36.205,24.133 36.582,24.263 L49.270,28.579 C50.007,28.828 50.500,29.517 50.500,30.295 L50.500,40.005 C50.500,51.857 37.271,57.618 36.708,57.857 C36.481,57.952 36.242,58.000 36.000,58.000 C35.758,58.000 35.519,57.952 35.292,57.855 C34.729,57.616 21.500,51.857 21.500,40.005 L21.500,30.295 C21.500,29.520 21.993,28.831 22.730,28.579 ZM25.125,40.005 C25.125,48.096 33.474,52.913 35.998,54.182 C38.516,52.906 46.875,48.065 46.875,40.005 L46.875,31.593 L36.000,27.893 L25.125,31.593 L25.125,40.005 ZM43.733,34.196 C44.533,34.798 44.695,35.933 44.093,36.733 L36.843,46.400 C36.529,46.821 36.048,47.084 35.521,47.120 C35.480,47.125 35.439,47.125 35.396,47.125 C34.917,47.125 34.453,46.934 34.115,46.593 L29.282,41.760 C28.574,41.052 28.574,39.904 29.282,39.196 C29.990,38.488 31.138,38.488 31.846,39.196 L35.202,42.553 L41.196,34.558 C41.790,33.758 42.928,33.594 43.733,34.196 Z"/>
</g>
<path fill="url(#PSgrad_0)"
  d="M58.354,53.167 L53.980,53.167 C52.979,53.167 52.167,52.355 52.167,51.354 C52.167,50.354 52.979,49.542 53.980,49.542 L58.354,49.542 C60.019,49.542 61.375,48.186 61.375,46.521 L61.375,12.083 L10.625,12.083 L10.625,46.521 C10.625,48.186 11.981,49.542 13.646,49.542 L18.020,49.542 C19.020,49.542 19.832,50.354 19.832,51.354 C19.832,52.355 19.020,53.167 18.020,53.167 L13.646,53.167 C9.980,53.167 7.000,50.187 7.000,46.521 L7.000,6.646 C7.000,2.980 9.980,-0.000 13.646,-0.000 L58.354,-0.000 C62.020,-0.000 65.000,2.980 65.000,6.646 L65.000,46.521 C65.000,50.187 62.020,53.167 58.354,53.167 ZM61.375,6.646 C61.375,4.981 60.019,3.625 58.354,3.625 L13.646,3.625 C11.981,3.625 10.625,4.981 10.625,6.646 L10.625,8.458 L61.375,8.458 L61.375,6.646 ZM22.730,28.579 L35.418,24.263 C35.795,24.133 36.205,24.133 36.582,24.263 L49.270,28.579 C50.007,28.828 50.500,29.517 50.500,30.295 L50.500,40.005 C50.500,51.857 37.271,57.618 36.708,57.857 C36.481,57.952 36.242,58.000 36.000,58.000 C35.758,58.000 35.519,57.952 35.292,57.855 C34.729,57.616 21.500,51.857 21.500,40.005 L21.500,30.295 C21.500,29.520 21.993,28.831 22.730,28.579 ZM25.125,40.005 C25.125,48.096 33.474,52.913 35.998,54.182 C38.516,52.906 46.875,48.065 46.875,40.005 L46.875,31.593 L36.000,27.893 L25.125,31.593 L25.125,40.005 ZM43.733,34.196 C44.533,34.798 44.695,35.933 44.093,36.733 L36.843,46.400 C36.529,46.821 36.048,47.084 35.521,47.120 C35.480,47.125 35.439,47.125 35.396,47.125 C34.917,47.125 34.453,46.934 34.115,46.593 L29.282,41.760 C28.574,41.052 28.574,39.904 29.282,39.196 C29.990,38.488 31.138,38.488 31.846,39.196 L35.202,42.553 L41.196,34.558 C41.790,33.758 42.928,33.594 43.733,34.196 Z"/>
</svg>