<svg
xmlns="http://www.w3.org/2000/svg"
xmlns:xlink="http://www.w3.org/1999/xlink"
width="76px" height="73px">
<defs>
<filter filterUnits="userSpaceOnUse" id="Filter_0" x="0px" y="0px" width="76px" height="73px"  >
	<feOffset in="SourceAlpha" dx="0" dy="8" />
	<feGaussianBlur result="blurOut" stdDeviation="2.828" />
	<feFlood flood-color="rgb(11, 92, 233)" result="floodOut" />
	<feComposite operator="atop" in="floodOut" in2="blurOut" />
	<feComponentTransfer><feFuncA type="linear" slope="0.4"/></feComponentTransfer>
	<feMerge>
		<feMergeNode/>
		<feMergeNode in="SourceGraphic"/>
	</feMerge>
</filter>
<linearGradient id="PSgrad_0" x1="0%" x2="65.606%" y1="0%" y2="75.471%">
	<stop offset="0%" stop-color="rgb(11,92,233)" stop-opacity="1" />
	<stop offset="100%" stop-color="rgb(115,32,249)" stop-opacity="1" />
</linearGradient>

</defs>
<g filter="url(#Filter_0)">
<path fill-rule="evenodd"  fill="rgb(142, 142, 142)"
	  d="M59.967,27.806 L59.967,46.323 L60.721,46.323 C61.604,46.323 62.408,46.763 62.872,47.499 C63.336,48.235 63.377,49.136 62.982,49.910 L61.352,53.108 C60.127,55.509 57.666,57.000 54.929,57.000 L15.321,57.000 C12.583,57.000 10.122,55.509 8.898,53.108 L7.267,49.910 C6.872,49.136 6.914,48.235 7.378,47.499 C7.842,46.763 8.645,46.323 9.528,46.323 L10.282,46.323 L10.282,13.480 L37.956,13.480 C38.618,5.939 45.089,0.000 52.949,0.000 C61.248,0.000 68.000,6.619 68.000,14.756 C68.000,20.409 64.740,25.329 59.967,27.806 ZM11.709,51.730 C12.397,53.080 13.781,53.919 15.321,53.919 L54.929,53.919 C56.468,53.919 57.852,53.080 58.541,51.730 L59.726,49.405 L10.523,49.405 L11.709,51.730 ZM13.425,16.561 L13.425,46.323 L56.824,46.323 L56.824,29.015 C55.587,29.338 54.289,29.512 52.949,29.512 C45.274,29.512 38.922,23.849 38.011,16.561 L13.425,16.561 ZM52.949,3.081 C46.383,3.081 41.042,8.319 41.042,14.756 C41.042,21.193 46.383,26.430 52.949,26.430 C59.515,26.430 64.857,21.193 64.857,14.756 C64.857,8.319 59.515,3.081 52.949,3.081 ZM59.550,16.297 C59.381,16.993 59.101,17.648 58.727,18.242 L60.176,19.663 L57.954,21.842 L56.505,20.420 C55.899,20.787 55.232,21.061 54.521,21.227 L54.521,23.236 L51.378,23.236 L51.378,21.227 C50.667,21.061 49.999,20.787 49.394,20.420 L47.944,21.842 L45.722,19.663 L47.172,18.242 C46.798,17.648 46.518,16.993 46.348,16.297 L44.300,16.297 L44.300,13.215 L46.348,13.215 C46.518,12.518 46.798,11.863 47.172,11.270 L45.722,9.849 L47.944,7.670 L49.394,9.091 C49.999,8.725 50.667,8.450 51.378,8.284 L51.378,6.276 L54.521,6.276 L54.521,8.284 C55.232,8.450 55.900,8.725 56.505,9.092 L57.954,7.670 L60.176,9.849 L58.727,11.270 C59.101,11.863 59.381,12.518 59.550,13.215 L61.599,13.215 L61.599,16.297 L59.550,16.297 ZM52.949,11.184 C50.940,11.184 49.306,12.786 49.306,14.756 C49.306,16.725 50.940,18.328 52.949,18.328 C54.958,18.328 56.593,16.725 56.593,14.756 C56.593,12.786 54.958,11.184 52.949,11.184 Z"/>
</g>
<path fill="url(#PSgrad_0)"
  d="M59.967,27.806 L59.967,46.323 L60.721,46.323 C61.604,46.323 62.408,46.763 62.872,47.499 C63.336,48.235 63.377,49.136 62.982,49.910 L61.352,53.108 C60.127,55.509 57.666,57.000 54.929,57.000 L15.321,57.000 C12.583,57.000 10.122,55.509 8.898,53.108 L7.267,49.910 C6.872,49.136 6.914,48.235 7.378,47.499 C7.842,46.763 8.645,46.323 9.528,46.323 L10.282,46.323 L10.282,13.480 L37.956,13.480 C38.618,5.939 45.089,0.000 52.949,0.000 C61.248,0.000 68.000,6.619 68.000,14.756 C68.000,20.409 64.740,25.329 59.967,27.806 ZM11.709,51.730 C12.397,53.080 13.781,53.919 15.321,53.919 L54.929,53.919 C56.468,53.919 57.852,53.080 58.541,51.730 L59.726,49.405 L10.523,49.405 L11.709,51.730 ZM13.425,16.561 L13.425,46.323 L56.824,46.323 L56.824,29.015 C55.587,29.338 54.289,29.512 52.949,29.512 C45.274,29.512 38.922,23.849 38.011,16.561 L13.425,16.561 ZM52.949,3.081 C46.383,3.081 41.042,8.319 41.042,14.756 C41.042,21.193 46.383,26.430 52.949,26.430 C59.515,26.430 64.857,21.193 64.857,14.756 C64.857,8.319 59.515,3.081 52.949,3.081 ZM59.550,16.297 C59.381,16.993 59.101,17.648 58.727,18.242 L60.176,19.663 L57.954,21.842 L56.505,20.420 C55.899,20.787 55.232,21.061 54.521,21.227 L54.521,23.236 L51.378,23.236 L51.378,21.227 C50.667,21.061 49.999,20.787 49.394,20.420 L47.944,21.842 L45.722,19.663 L47.172,18.242 C46.798,17.648 46.518,16.993 46.348,16.297 L44.300,16.297 L44.300,13.215 L46.348,13.215 C46.518,12.518 46.798,11.863 47.172,11.270 L45.722,9.849 L47.944,7.670 L49.394,9.091 C49.999,8.725 50.667,8.450 51.378,8.284 L51.378,6.276 L54.521,6.276 L54.521,8.284 C55.232,8.450 55.900,8.725 56.505,9.092 L57.954,7.670 L60.176,9.849 L58.727,11.270 C59.101,11.863 59.381,12.518 59.550,13.215 L61.599,13.215 L61.599,16.297 L59.550,16.297 ZM52.949,11.184 C50.940,11.184 49.306,12.786 49.306,14.756 C49.306,16.725 50.940,18.328 52.949,18.328 C54.958,18.328 56.593,16.725 56.593,14.756 C56.593,12.786 54.958,11.184 52.949,11.184 Z"/>
</svg>