<svg
	xmlns="http://www.w3.org/2000/svg"
	xmlns:xlink="http://www.w3.org/1999/xlink"
	width="104px" height="89px">
<defs>
	<filter filterUnits="userSpaceOnUse" id="Filter_0" x="0px" y="0px" width="104px" height="89px"  >
		<feOffset in="SourceAlpha" dx="0" dy="8" />
		<feGaussianBlur result="blurOut" stdDeviation="2.828" />
		<feFlood flood-color="rgb(11, 92, 233)" result="floodOut" />
		<feComposite operator="atop" in="floodOut" in2="blurOut" />
		<feComponentTransfer><feFuncA type="linear" slope="0.4"/></feComponentTransfer>
		<feMerge>
			<feMergeNode/>
			<feMergeNode in="SourceGraphic"/>
		</feMerge>
	</filter>
	<linearGradient id="PSgrad_0" x1="0%" x2="65.606%" y1="0%" y2="75.471%">
		<stop offset="0%" stop-color="rgb(11,92,233)" stop-opacity="1" />
		<stop offset="100%" stop-color="rgb(115,32,249)" stop-opacity="1" />
	</linearGradient>

</defs>
<g filter="url(#Filter_0)">
	<path fill-rule="evenodd"  fill="rgb(0, 167, 157)"
		  d="M93.891,60.924 L92.318,60.924 L92.318,14.113 C92.318,10.533 89.427,7.619 85.873,7.619 L84.514,7.619 L75.423,0.330 C75.136,0.100 74.766,0.003 74.404,0.066 C74.043,0.128 73.725,0.342 73.530,0.655 L69.183,7.619 L16.312,7.619 C12.759,7.619 9.868,10.533 9.868,14.113 L9.868,60.924 L8.294,60.924 C7.583,60.924 7.005,61.505 7.005,62.223 C7.005,68.112 11.759,72.902 17.602,72.902 L84.584,72.902 C90.427,72.902 95.181,68.111 95.181,62.223 C95.181,61.505 94.603,60.924 93.891,60.924 ZM84.108,52.390 C84.820,52.390 85.397,51.808 85.397,51.090 L85.397,43.340 L85.397,26.642 L85.397,10.216 L85.873,10.216 C88.006,10.216 89.740,11.965 89.740,14.113 L89.740,60.924 L85.397,60.924 L85.397,56.286 C85.397,55.569 84.820,54.987 84.108,54.987 C84.106,54.987 84.105,54.987 84.103,54.987 C84.101,54.987 84.100,54.987 84.098,54.987 C83.386,54.987 82.809,55.569 82.809,56.286 L82.809,60.902 L20.906,60.902 L32.460,47.431 L41.628,53.837 C42.128,54.186 42.802,54.136 43.245,53.717 L55.662,41.964 L64.269,49.805 C64.566,50.076 64.973,50.191 65.368,50.119 C65.763,50.044 66.101,49.790 66.283,49.429 L74.809,32.480 L82.819,43.758 L82.819,51.091 C82.819,51.808 83.396,52.390 84.108,52.390 ZM60.405,63.522 C59.925,64.515 58.914,65.201 57.747,65.201 L44.440,65.201 C43.272,65.201 42.261,64.515 41.781,63.522 L60.405,63.522 ZM82.819,39.294 L82.819,39.294 L75.669,29.226 C75.406,28.857 74.973,28.653 74.523,28.687 C74.074,28.721 73.675,28.990 73.471,29.395 L64.747,46.737 L56.510,39.234 C56.012,38.780 55.253,38.787 54.763,39.250 L42.241,51.103 L32.978,44.630 C32.436,44.252 31.699,44.346 31.268,44.848 L24.054,53.259 L31.887,37.760 L41.566,45.441 C41.848,45.664 42.209,45.760 42.563,45.703 C42.916,45.648 43.231,45.446 43.432,45.147 L55.305,27.422 L63.775,33.435 C64.075,33.648 64.452,33.722 64.809,33.639 C65.167,33.555 65.473,33.321 65.649,32.996 L74.786,16.145 L82.820,27.071 L82.820,39.294 L82.819,39.294 ZM12.446,14.113 C12.446,11.965 14.180,10.216 16.312,10.216 L67.561,10.216 L64.681,14.832 L60.103,14.832 L55.345,13.380 C54.782,13.209 54.174,13.443 53.870,13.950 L53.339,14.832 L18.088,14.832 C17.376,14.832 16.799,15.413 16.799,16.130 L16.799,26.291 C16.799,27.009 17.376,27.590 18.088,27.590 C18.800,27.590 19.377,27.009 19.377,26.291 L19.377,17.430 L51.776,17.430 L48.442,22.968 C48.073,23.581 48.267,24.381 48.876,24.753 C49.485,25.125 50.278,24.928 50.647,24.315 L55.556,16.159 L59.523,17.369 C59.528,17.371 59.532,17.372 59.537,17.374 L64.144,18.779 C64.700,18.948 65.299,18.722 65.608,18.227 L74.945,3.267 L82.819,9.580 L82.819,22.707 L75.656,12.965 C75.394,12.609 74.970,12.413 74.532,12.442 C74.093,12.473 73.700,12.727 73.489,13.116 L64.078,30.473 L55.714,24.535 C55.431,24.334 55.080,24.256 54.739,24.319 C54.398,24.382 54.097,24.581 53.903,24.870 L42.070,42.535 L32.248,34.741 C31.944,34.500 31.550,34.409 31.173,34.492 C30.797,34.576 30.477,34.825 30.302,35.171 L21.797,51.998 L27.330,28.337 L41.719,36.699 C42.326,37.053 43.102,36.852 43.465,36.248 L47.933,28.824 C48.302,28.210 48.108,27.412 47.499,27.040 C46.891,26.668 46.098,26.864 45.729,27.477 L41.915,33.814 L27.117,25.213 C26.764,25.007 26.335,24.982 25.961,25.145 C25.587,25.309 25.311,25.640 25.218,26.040 L19.377,51.023 L19.377,31.486 C19.377,30.769 18.800,30.188 18.088,30.188 C17.376,30.188 16.799,30.769 16.799,31.486 L16.799,60.924 L12.446,60.924 L12.446,14.113 ZM84.584,70.304 L17.602,70.304 C13.619,70.304 10.305,67.363 9.687,63.522 L39.060,63.522 C39.642,65.972 41.832,67.799 44.439,67.799 L57.746,67.799 C60.353,67.799 62.543,65.972 63.126,63.522 L92.499,63.522 C91.880,67.362 88.567,70.304 84.584,70.304 Z"/>
</g>
<path fill="url(#PSgrad_0)"
	  d="M93.891,60.924 L92.318,60.924 L92.318,14.113 C92.318,10.533 89.427,7.619 85.873,7.619 L84.514,7.619 L75.423,0.330 C75.136,0.100 74.766,0.003 74.404,0.066 C74.043,0.128 73.725,0.342 73.530,0.655 L69.183,7.619 L16.312,7.619 C12.759,7.619 9.868,10.533 9.868,14.113 L9.868,60.924 L8.294,60.924 C7.583,60.924 7.005,61.505 7.005,62.223 C7.005,68.112 11.759,72.902 17.602,72.902 L84.584,72.902 C90.427,72.902 95.181,68.111 95.181,62.223 C95.181,61.505 94.603,60.924 93.891,60.924 ZM84.108,52.390 C84.820,52.390 85.397,51.808 85.397,51.090 L85.397,43.340 L85.397,26.642 L85.397,10.216 L85.873,10.216 C88.006,10.216 89.740,11.965 89.740,14.113 L89.740,60.924 L85.397,60.924 L85.397,56.286 C85.397,55.569 84.820,54.987 84.108,54.987 C84.106,54.987 84.105,54.987 84.103,54.987 C84.101,54.987 84.100,54.987 84.098,54.987 C83.386,54.987 82.809,55.569 82.809,56.286 L82.809,60.902 L20.906,60.902 L32.460,47.431 L41.628,53.837 C42.128,54.186 42.802,54.136 43.245,53.717 L55.662,41.964 L64.269,49.805 C64.566,50.076 64.973,50.191 65.368,50.119 C65.763,50.044 66.101,49.790 66.283,49.429 L74.809,32.480 L82.819,43.758 L82.819,51.091 C82.819,51.808 83.396,52.390 84.108,52.390 ZM60.405,63.522 C59.925,64.515 58.914,65.201 57.747,65.201 L44.440,65.201 C43.272,65.201 42.261,64.515 41.781,63.522 L60.405,63.522 ZM82.819,39.294 L82.819,39.294 L75.669,29.226 C75.406,28.857 74.973,28.653 74.523,28.687 C74.074,28.721 73.675,28.990 73.471,29.395 L64.747,46.737 L56.510,39.234 C56.012,38.780 55.253,38.787 54.763,39.250 L42.241,51.103 L32.978,44.630 C32.436,44.252 31.699,44.346 31.268,44.848 L24.054,53.259 L31.887,37.760 L41.566,45.441 C41.848,45.664 42.209,45.760 42.563,45.703 C42.916,45.648 43.231,45.446 43.432,45.147 L55.305,27.422 L63.775,33.435 C64.075,33.648 64.452,33.722 64.809,33.639 C65.167,33.555 65.473,33.321 65.649,32.996 L74.786,16.145 L82.820,27.071 L82.820,39.294 L82.819,39.294 ZM12.446,14.113 C12.446,11.965 14.180,10.216 16.312,10.216 L67.561,10.216 L64.681,14.832 L60.103,14.832 L55.345,13.380 C54.782,13.209 54.174,13.443 53.870,13.950 L53.339,14.832 L18.088,14.832 C17.376,14.832 16.799,15.413 16.799,16.130 L16.799,26.291 C16.799,27.009 17.376,27.590 18.088,27.590 C18.800,27.590 19.377,27.009 19.377,26.291 L19.377,17.430 L51.776,17.430 L48.442,22.968 C48.073,23.581 48.267,24.381 48.876,24.753 C49.485,25.125 50.278,24.928 50.647,24.315 L55.556,16.159 L59.523,17.369 C59.528,17.371 59.532,17.372 59.537,17.374 L64.144,18.779 C64.700,18.948 65.299,18.722 65.608,18.227 L74.945,3.267 L82.819,9.580 L82.819,22.707 L75.656,12.965 C75.394,12.609 74.970,12.413 74.532,12.442 C74.093,12.473 73.700,12.727 73.489,13.116 L64.078,30.473 L55.714,24.535 C55.431,24.334 55.080,24.256 54.739,24.319 C54.398,24.382 54.097,24.581 53.903,24.870 L42.070,42.535 L32.248,34.741 C31.944,34.500 31.550,34.409 31.173,34.492 C30.797,34.576 30.477,34.825 30.302,35.171 L21.797,51.998 L27.330,28.337 L41.719,36.699 C42.326,37.053 43.102,36.852 43.465,36.248 L47.933,28.824 C48.302,28.210 48.108,27.412 47.499,27.040 C46.891,26.668 46.098,26.864 45.729,27.477 L41.915,33.814 L27.117,25.213 C26.764,25.007 26.335,24.982 25.961,25.145 C25.587,25.309 25.311,25.640 25.218,26.040 L19.377,51.023 L19.377,31.486 C19.377,30.769 18.800,30.188 18.088,30.188 C17.376,30.188 16.799,30.769 16.799,31.486 L16.799,60.924 L12.446,60.924 L12.446,14.113 ZM84.584,70.304 L17.602,70.304 C13.619,70.304 10.305,67.363 9.687,63.522 L39.060,63.522 C39.642,65.972 41.832,67.799 44.439,67.799 L57.746,67.799 C60.353,67.799 62.543,65.972 63.126,63.522 L92.499,63.522 C91.880,67.362 88.567,70.304 84.584,70.304 Z"/>
</svg>