<svg
xmlns="http://www.w3.org/2000/svg"
xmlns:xlink="http://www.w3.org/1999/xlink"
width="73px" height="68px">
<defs>
<filter filterUnits="userSpaceOnUse" id="Filter_0" x="0px" y="0px" width="73px" height="68px"  >
	<feOffset in="SourceAlpha" dx="0" dy="8" />
	<feGaussianBlur result="blurOut" stdDeviation="2.828" />
	<feFlood flood-color="rgb(11, 92, 233)" result="floodOut" />
	<feComposite operator="atop" in="floodOut" in2="blurOut" />
	<feComponentTransfer><feFuncA type="linear" slope="0.4"/></feComponentTransfer>
	<feMerge>
		<feMergeNode/>
		<feMergeNode in="SourceGraphic"/>
	</feMerge>
</filter>
<linearGradient id="PSgrad_0" x1="0%" x2="65.606%" y1="0%" y2="75.471%">
	<stop offset="0%" stop-color="rgb(11,92,233)" stop-opacity="1" />
	<stop offset="100%" stop-color="rgb(115,32,249)" stop-opacity="1" />
</linearGradient>

</defs>
<g filter="url(#Filter_0)">
<path fill-rule="evenodd"  fill="rgb(139, 154, 170)"
	  d="M59.907,36.229 L58.207,36.229 L58.207,46.895 C58.207,49.715 55.920,52.009 53.109,52.009 L12.098,52.009 C9.287,52.009 7.000,49.715 7.000,46.895 L7.000,5.107 C7.000,2.286 9.287,-0.008 12.098,-0.008 L49.711,-0.008 C52.522,-0.008 54.809,2.286 54.809,5.107 L54.809,7.104 C56.787,7.808 58.207,9.703 58.207,11.926 L58.207,15.772 L59.907,15.772 C62.718,15.772 65.005,18.067 65.005,20.886 L65.005,20.887 L65.005,31.115 C65.005,33.935 62.718,36.229 59.907,36.229 ZM51.410,5.107 C51.410,4.167 50.648,3.402 49.711,3.402 L12.098,3.402 C11.161,3.402 10.399,4.167 10.399,5.107 C10.399,6.047 11.161,6.811 12.098,6.811 L51.410,6.811 L51.410,5.107 ZM54.809,11.926 C54.809,10.986 54.046,10.221 53.109,10.221 L12.098,10.221 C11.502,10.221 10.931,10.117 10.399,9.928 L10.399,46.895 C10.399,47.835 11.161,48.600 12.098,48.600 L53.109,48.600 C54.046,48.600 54.809,47.835 54.809,46.895 L54.809,36.229 L48.011,36.229 C44.263,36.229 41.214,33.171 41.214,29.410 C41.214,25.650 44.263,22.591 48.011,22.591 L54.809,22.591 C54.809,21.800 54.809,12.700 54.809,11.926 ZM59.907,19.182 L58.207,19.182 L58.207,22.591 L59.907,22.591 C60.844,22.591 61.606,21.827 61.606,20.886 C61.606,19.946 60.844,19.182 59.907,19.182 ZM61.606,25.707 C61.074,25.897 60.503,26.001 59.907,26.001 C58.715,26.001 49.199,26.001 48.011,26.001 C46.137,26.001 44.613,27.530 44.613,29.410 C44.613,31.290 46.137,32.820 48.011,32.820 L59.907,32.820 C60.844,32.820 61.606,32.055 61.606,31.115 L61.606,25.707 ZM15.497,43.048 C14.558,43.048 13.797,42.285 13.797,41.344 L13.797,37.934 C13.797,36.993 14.558,36.229 15.497,36.229 C16.435,36.229 17.196,36.993 17.196,37.934 L17.196,41.344 C17.196,42.285 16.435,43.048 15.497,43.048 ZM15.497,32.820 C14.558,32.820 13.797,32.057 13.797,31.115 L13.797,27.705 C13.797,26.764 14.558,26.001 15.497,26.001 C16.435,26.001 17.196,26.764 17.196,27.705 L17.196,31.115 C17.196,32.057 16.435,32.820 15.497,32.820 ZM15.497,22.591 C14.558,22.591 13.797,21.828 13.797,20.886 L13.797,17.477 C13.797,16.535 14.558,15.772 15.497,15.772 C16.435,15.772 17.196,16.535 17.196,17.477 L17.196,20.886 C17.196,21.828 16.435,22.591 15.497,22.591 Z"/>
</g>
<path fill="url(#PSgrad_0)"
  d="M59.907,36.229 L58.207,36.229 L58.207,46.895 C58.207,49.715 55.920,52.009 53.109,52.009 L12.098,52.009 C9.287,52.009 7.000,49.715 7.000,46.895 L7.000,5.107 C7.000,2.286 9.287,-0.008 12.098,-0.008 L49.711,-0.008 C52.522,-0.008 54.809,2.286 54.809,5.107 L54.809,7.104 C56.787,7.808 58.207,9.703 58.207,11.926 L58.207,15.772 L59.907,15.772 C62.718,15.772 65.005,18.067 65.005,20.886 L65.005,20.887 L65.005,31.115 C65.005,33.935 62.718,36.229 59.907,36.229 ZM51.410,5.107 C51.410,4.167 50.648,3.402 49.711,3.402 L12.098,3.402 C11.161,3.402 10.399,4.167 10.399,5.107 C10.399,6.047 11.161,6.811 12.098,6.811 L51.410,6.811 L51.410,5.107 ZM54.809,11.926 C54.809,10.986 54.046,10.221 53.109,10.221 L12.098,10.221 C11.502,10.221 10.931,10.117 10.399,9.928 L10.399,46.895 C10.399,47.835 11.161,48.600 12.098,48.600 L53.109,48.600 C54.046,48.600 54.809,47.835 54.809,46.895 L54.809,36.229 L48.011,36.229 C44.263,36.229 41.214,33.171 41.214,29.410 C41.214,25.650 44.263,22.591 48.011,22.591 L54.809,22.591 C54.809,21.800 54.809,12.700 54.809,11.926 ZM59.907,19.182 L58.207,19.182 L58.207,22.591 L59.907,22.591 C60.844,22.591 61.606,21.827 61.606,20.886 C61.606,19.946 60.844,19.182 59.907,19.182 ZM61.606,25.707 C61.074,25.897 60.503,26.001 59.907,26.001 C58.715,26.001 49.199,26.001 48.011,26.001 C46.137,26.001 44.613,27.530 44.613,29.410 C44.613,31.290 46.137,32.820 48.011,32.820 L59.907,32.820 C60.844,32.820 61.606,32.055 61.606,31.115 L61.606,25.707 ZM15.497,43.048 C14.558,43.048 13.797,42.285 13.797,41.344 L13.797,37.934 C13.797,36.993 14.558,36.229 15.497,36.229 C16.435,36.229 17.196,36.993 17.196,37.934 L17.196,41.344 C17.196,42.285 16.435,43.048 15.497,43.048 ZM15.497,32.820 C14.558,32.820 13.797,32.057 13.797,31.115 L13.797,27.705 C13.797,26.764 14.558,26.001 15.497,26.001 C16.435,26.001 17.196,26.764 17.196,27.705 L17.196,31.115 C17.196,32.057 16.435,32.820 15.497,32.820 ZM15.497,22.591 C14.558,22.591 13.797,21.828 13.797,20.886 L13.797,17.477 C13.797,16.535 14.558,15.772 15.497,15.772 C16.435,15.772 17.196,16.535 17.196,17.477 L17.196,20.886 C17.196,21.828 16.435,22.591 15.497,22.591 Z"/>
</svg>