<svg
xmlns="http://www.w3.org/2000/svg"
xmlns:xlink="http://www.w3.org/1999/xlink"
width="66px" height="74px">
<defs>
<filter filterUnits="userSpaceOnUse" id="Filter_0" x="0px" y="0px" width="66px" height="74px"  >
	<feOffset in="SourceAlpha" dx="0" dy="8" />
	<feGaussianBlur result="blurOut" stdDeviation="2.828" />
	<feFlood flood-color="rgb(11, 92, 233)" result="floodOut" />
	<feComposite operator="atop" in="floodOut" in2="blurOut" />
	<feComponentTransfer><feFuncA type="linear" slope="0.4"/></feComponentTransfer>
	<feMerge>
		<feMergeNode/>
		<feMergeNode in="SourceGraphic"/>
	</feMerge>
</filter>
<linearGradient id="PSgrad_0" x1="0%" x2="65.606%" y1="0%" y2="75.471%">
	<stop offset="0%" stop-color="rgb(11,92,233)" stop-opacity="1" />
	<stop offset="100%" stop-color="rgb(115,32,249)" stop-opacity="1" />
</linearGradient>

</defs>
<g filter="url(#Filter_0)">
<path fill-rule="evenodd"  fill="rgb(139, 154, 170)"
	  d="M52.633,43.439 L47.023,43.439 L47.023,52.660 C47.023,55.604 44.616,58.000 41.656,58.000 L12.385,58.000 C9.450,58.000 7.018,55.640 7.018,52.660 L7.018,5.339 C7.018,2.418 9.390,-0.000 12.385,-0.000 L41.656,-0.000 C44.616,-0.000 47.023,2.395 47.023,5.339 L47.023,14.560 L52.633,14.560 C55.614,14.560 58.000,16.963 58.000,19.899 L58.000,38.100 C58.000,41.066 55.584,43.439 52.633,43.439 ZM32.631,3.398 L21.411,3.398 L21.411,5.339 C21.411,6.409 22.286,7.280 23.362,7.280 L30.680,7.280 C31.756,7.280 32.631,6.409 32.631,5.339 L32.631,3.398 ZM43.607,5.339 C43.607,4.269 42.732,3.398 41.656,3.398 L36.047,3.398 L36.047,5.339 C36.047,8.283 33.639,10.678 30.680,10.678 L23.362,10.678 C20.403,10.678 17.995,8.283 17.995,5.339 L17.995,3.398 L12.385,3.398 C11.293,3.398 10.434,4.282 10.434,5.339 L10.434,52.660 C10.434,53.747 11.323,54.601 12.385,54.601 L41.656,54.601 C42.732,54.601 43.607,53.731 43.607,52.660 L43.607,43.439 L19.703,43.439 C16.772,43.439 14.336,41.083 14.336,38.100 L14.336,19.899 C14.336,16.983 16.704,14.560 19.703,14.560 L43.607,14.560 L43.607,5.339 ZM54.584,19.899 C54.584,18.813 53.695,17.959 52.633,17.959 L19.703,17.959 C18.610,17.959 17.752,18.843 17.752,19.899 L17.752,23.661 L54.584,23.661 L54.584,19.899 ZM54.584,27.059 L17.752,27.059 L17.752,38.100 C17.752,39.187 18.641,40.041 19.703,40.041 L52.633,40.041 C53.726,40.041 54.584,39.157 54.584,38.100 L54.584,38.100 L54.584,27.059 ZM48.974,36.159 L45.315,36.159 C44.372,36.159 43.607,35.398 43.607,34.460 C43.607,33.522 44.372,32.760 45.315,32.760 L48.974,32.760 C49.917,32.760 50.682,33.522 50.682,34.460 C50.682,35.398 49.917,36.159 48.974,36.159 ZM21.532,47.321 L32.509,47.321 C33.452,47.321 34.217,48.082 34.217,49.021 C34.217,49.959 33.452,50.720 32.509,50.720 L21.532,50.720 C20.589,50.720 19.824,49.959 19.824,49.021 C19.824,48.082 20.589,47.321 21.532,47.321 Z"/>
</g>
<path fill="url(#PSgrad_0)"
  d="M52.633,43.439 L47.023,43.439 L47.023,52.660 C47.023,55.604 44.616,58.000 41.656,58.000 L12.385,58.000 C9.450,58.000 7.018,55.640 7.018,52.660 L7.018,5.339 C7.018,2.418 9.390,-0.000 12.385,-0.000 L41.656,-0.000 C44.616,-0.000 47.023,2.395 47.023,5.339 L47.023,14.560 L52.633,14.560 C55.614,14.560 58.000,16.963 58.000,19.899 L58.000,38.100 C58.000,41.066 55.584,43.439 52.633,43.439 ZM32.631,3.398 L21.411,3.398 L21.411,5.339 C21.411,6.409 22.286,7.280 23.362,7.280 L30.680,7.280 C31.756,7.280 32.631,6.409 32.631,5.339 L32.631,3.398 ZM43.607,5.339 C43.607,4.269 42.732,3.398 41.656,3.398 L36.047,3.398 L36.047,5.339 C36.047,8.283 33.639,10.678 30.680,10.678 L23.362,10.678 C20.403,10.678 17.995,8.283 17.995,5.339 L17.995,3.398 L12.385,3.398 C11.293,3.398 10.434,4.282 10.434,5.339 L10.434,52.660 C10.434,53.747 11.323,54.601 12.385,54.601 L41.656,54.601 C42.732,54.601 43.607,53.731 43.607,52.660 L43.607,43.439 L19.703,43.439 C16.772,43.439 14.336,41.083 14.336,38.100 L14.336,19.899 C14.336,16.983 16.704,14.560 19.703,14.560 L43.607,14.560 L43.607,5.339 ZM54.584,19.899 C54.584,18.813 53.695,17.959 52.633,17.959 L19.703,17.959 C18.610,17.959 17.752,18.843 17.752,19.899 L17.752,23.661 L54.584,23.661 L54.584,19.899 ZM54.584,27.059 L17.752,27.059 L17.752,38.100 C17.752,39.187 18.641,40.041 19.703,40.041 L52.633,40.041 C53.726,40.041 54.584,39.157 54.584,38.100 L54.584,38.100 L54.584,27.059 ZM48.974,36.159 L45.315,36.159 C44.372,36.159 43.607,35.398 43.607,34.460 C43.607,33.522 44.372,32.760 45.315,32.760 L48.974,32.760 C49.917,32.760 50.682,33.522 50.682,34.460 C50.682,35.398 49.917,36.159 48.974,36.159 ZM21.532,47.321 L32.509,47.321 C33.452,47.321 34.217,48.082 34.217,49.021 C34.217,49.959 33.452,50.720 32.509,50.720 L21.532,50.720 C20.589,50.720 19.824,49.959 19.824,49.021 C19.824,48.082 20.589,47.321 21.532,47.321 Z"/>
</svg>