<svg 
 xmlns="http://www.w3.org/2000/svg"
 xmlns:xlink="http://www.w3.org/1999/xlink"
 width="20px" height="20px">
<path fill-rule="evenodd"  fill="rgb(11, 92, 233)"
 d="M17.708,-0.000 L2.292,-0.000 C1.027,-0.000 -0.000,1.027 -0.000,2.292 L-0.000,17.708 C-0.000,18.972 1.027,20.000 2.292,20.000 L17.708,20.000 C18.972,20.000 20.000,18.972 20.000,17.708 L20.000,2.292 C20.000,1.027 18.972,-0.000 17.708,-0.000 ZM14.375,10.833 L10.833,10.833 L10.833,14.375 C10.833,14.835 10.461,15.208 10.000,15.208 C9.539,15.208 9.167,14.835 9.167,14.375 L9.167,10.833 L5.625,10.833 C5.164,10.833 4.792,10.460 4.792,10.000 C4.792,9.540 5.164,9.167 5.625,9.167 L9.167,9.167 L9.167,5.625 C9.167,5.165 9.539,4.792 10.000,4.792 C10.461,4.792 10.833,5.165 10.833,5.625 L10.833,9.167 L14.375,9.167 C14.836,9.167 15.208,9.540 15.208,10.000 C15.208,10.460 14.836,10.833 14.375,10.833 Z"/>
</svg>