<svg
xmlns="http://www.w3.org/2000/svg"
xmlns:xlink="http://www.w3.org/1999/xlink"
width="102px" height="97px">
<defs>
<filter filterUnits="userSpaceOnUse" id="Filter_0" x="0px" y="0px" width="102px" height="97px"  >
	<feOffset in="SourceAlpha" dx="0" dy="8" />
	<feGaussianBlur result="blurOut" stdDeviation="2.828" />
	<feFlood flood-color="rgb(11, 92, 233)" result="floodOut" />
	<feComposite operator="atop" in="floodOut" in2="blurOut" />
	<feComponentTransfer><feFuncA type="linear" slope="0.4"/></feComponentTransfer>
	<feMerge>
		<feMergeNode/>
		<feMergeNode in="SourceGraphic"/>
	</feMerge>
</filter>
<linearGradient id="PSgrad_0" x1="0%" x2="65.606%" y1="0%" y2="75.471%">
	<stop offset="0%" stop-color="rgb(11,92,233)" stop-opacity="1" />
	<stop offset="100%" stop-color="rgb(115,32,249)" stop-opacity="1" />
</linearGradient>

</defs>
<g filter="url(#Filter_0)">
<path fill-rule="evenodd"  fill="rgb(0, 167, 157)"
	  d="M62.614,29.573 L62.183,29.573 L62.183,23.831 C62.183,17.462 57.020,12.280 50.674,12.280 C44.329,12.280 39.166,17.462 39.166,23.831 C39.166,24.632 39.821,25.289 40.620,25.289 C41.420,25.289 42.075,24.632 42.075,23.831 C42.075,19.066 45.943,15.183 50.690,15.183 C55.437,15.183 59.305,19.066 59.305,23.831 L59.305,29.573 L38.735,29.573 C36.657,29.573 34.962,31.274 34.962,33.359 L34.962,49.127 C34.962,51.213 36.657,52.913 38.735,52.913 L62.598,52.913 C64.676,52.913 66.370,51.213 66.370,49.127 L66.370,33.359 C66.370,31.274 64.692,29.573 62.614,29.573 L62.614,29.573 ZM71.341,34.755 L83.890,34.755 C87.071,34.755 89.660,32.155 89.660,28.964 L89.660,11.050 C91.882,10.408 93.512,8.371 93.512,5.932 C93.512,2.997 91.131,0.607 88.206,0.607 C85.280,0.607 82.899,2.997 82.899,5.932 C82.899,8.355 84.529,10.408 86.751,11.050 L86.751,28.964 C86.751,30.552 85.456,31.851 83.874,31.851 L71.325,31.851 C70.526,31.851 69.871,32.508 69.871,33.311 C69.887,34.097 70.542,34.755 71.341,34.755 L71.341,34.755 ZM85.808,5.932 C85.808,4.601 86.879,3.526 88.206,3.526 C89.532,3.526 90.603,4.601 90.603,5.932 C90.603,7.264 89.532,8.339 88.206,8.339 C86.879,8.339 85.808,7.264 85.808,5.932 L85.808,5.932 ZM89.660,70.412 L89.660,54.742 C89.660,51.550 87.071,48.951 83.890,48.951 L71.341,48.951 C70.542,48.951 69.887,49.608 69.887,50.410 C69.887,51.213 70.542,51.871 71.341,51.871 L83.890,51.871 C85.472,51.871 86.767,53.170 86.767,54.758 L86.767,70.429 C84.545,71.069 82.915,73.107 82.915,75.546 C82.915,78.481 85.296,80.871 88.222,80.871 C91.147,80.871 93.528,78.481 93.528,75.546 C93.512,73.107 91.882,71.054 89.660,70.412 L89.660,70.412 ZM88.206,77.951 C86.879,77.951 85.808,76.877 85.808,75.546 C85.808,74.214 86.879,73.139 88.206,73.139 C89.532,73.139 90.603,74.214 90.603,75.546 C90.619,76.861 89.532,77.951 88.206,77.951 L88.206,77.951 ZM88.206,36.535 C85.792,36.535 83.746,38.171 83.107,40.401 L71.325,40.401 C70.526,40.401 69.871,41.059 69.871,41.860 C69.871,42.663 70.526,43.320 71.325,43.320 L83.107,43.320 C83.746,45.550 85.776,47.186 88.206,47.186 C91.131,47.186 93.512,44.796 93.512,41.860 C93.512,38.925 91.131,36.535 88.206,36.535 L88.206,36.535 ZM88.206,44.267 C86.879,44.267 85.808,43.192 85.808,41.860 C85.808,40.530 86.879,39.454 88.206,39.454 C89.532,39.454 90.603,40.530 90.603,41.860 C90.619,43.192 89.532,44.267 88.206,44.267 L88.206,44.267 ZM30.007,48.951 L17.475,48.951 C14.294,48.951 11.705,51.550 11.705,54.742 L11.705,70.412 C9.483,71.054 7.852,73.091 7.852,75.529 C7.852,78.465 10.234,80.855 13.159,80.855 C16.084,80.855 18.466,78.465 18.466,75.529 C18.466,73.107 16.836,71.054 14.614,70.412 L14.614,54.742 C14.614,53.154 15.908,51.854 17.491,51.854 L30.039,51.854 C30.839,51.854 31.494,51.196 31.494,50.395 C31.462,49.608 30.806,48.951 30.007,48.951 L30.007,48.951 ZM15.541,75.529 C15.541,76.861 14.470,77.935 13.143,77.935 C11.816,77.935 10.746,76.861 10.746,75.529 C10.746,74.198 11.816,73.123 13.143,73.123 C14.470,73.123 15.541,74.198 15.541,75.529 L15.541,75.529 ZM30.007,31.851 L17.475,31.851 C15.892,31.851 14.598,30.552 14.598,28.964 L14.598,11.050 C16.819,10.408 18.450,8.371 18.450,5.932 C18.450,2.997 16.068,0.607 13.143,0.607 C10.218,0.607 7.836,2.997 7.836,5.932 C7.836,8.355 9.467,10.408 11.689,11.050 L11.689,28.964 C11.689,32.155 14.278,34.755 17.459,34.755 L30.007,34.755 C30.806,34.755 31.462,34.097 31.462,33.294 C31.462,32.493 30.806,31.851 30.007,31.851 L30.007,31.851 ZM10.730,5.932 C10.730,4.601 11.800,3.526 13.127,3.526 C14.454,3.526 15.524,4.601 15.524,5.932 C15.524,7.264 14.454,8.339 13.127,8.339 C11.800,8.339 10.730,7.264 10.730,5.932 L10.730,5.932 ZM30.007,40.401 L18.242,40.401 C17.602,38.171 15.573,36.535 13.143,36.535 C10.218,36.535 7.836,38.925 7.836,41.860 C7.836,44.796 10.218,47.186 13.143,47.186 C15.557,47.186 17.602,45.550 18.242,43.320 L30.023,43.320 C30.822,43.320 31.478,42.663 31.478,41.860 C31.462,41.059 30.806,40.401 30.007,40.401 L30.007,40.401 ZM13.143,44.267 C11.816,44.267 10.746,43.192 10.746,41.860 C10.746,40.530 11.816,39.454 13.143,39.454 C14.470,39.454 15.541,40.530 15.541,41.860 C15.541,43.192 14.470,44.267 13.143,44.267 L13.143,44.267 ZM51.090,37.129 C52.257,37.353 53.072,38.300 53.104,39.454 C53.104,40.257 52.784,40.915 52.129,41.395 C51.921,41.540 51.873,41.684 51.873,41.909 C51.873,42.952 51.873,43.978 51.873,45.021 L51.873,45.021 C51.905,45.454 51.681,45.871 51.298,46.063 C50.387,46.529 49.492,45.871 49.492,45.021 L49.492,45.021 C49.492,43.978 49.492,42.952 49.492,41.909 C49.492,41.700 49.460,41.572 49.268,41.428 C48.325,40.738 48.021,39.567 48.485,38.524 C48.932,37.513 50.035,36.920 51.090,37.129 L51.090,37.129 ZM63.477,49.112 C63.477,49.592 63.094,49.977 62.614,49.977 L38.735,49.978 C38.255,49.978 37.872,49.592 37.872,49.112 L37.872,33.343 C37.872,32.861 38.255,32.477 38.735,32.477 L62.598,32.477 C63.078,32.477 63.461,32.861 63.461,33.343 L63.461,49.112 L63.477,49.112 Z"/>
</g>
<path fill="url(#PSgrad_0)"
  d="M62.614,29.573 L62.183,29.573 L62.183,23.831 C62.183,17.462 57.020,12.280 50.674,12.280 C44.329,12.280 39.166,17.462 39.166,23.831 C39.166,24.632 39.821,25.289 40.620,25.289 C41.420,25.289 42.075,24.632 42.075,23.831 C42.075,19.066 45.943,15.183 50.690,15.183 C55.437,15.183 59.305,19.066 59.305,23.831 L59.305,29.573 L38.735,29.573 C36.657,29.573 34.962,31.274 34.962,33.359 L34.962,49.127 C34.962,51.213 36.657,52.913 38.735,52.913 L62.598,52.913 C64.676,52.913 66.370,51.213 66.370,49.127 L66.370,33.359 C66.370,31.274 64.692,29.573 62.614,29.573 L62.614,29.573 ZM71.341,34.755 L83.890,34.755 C87.071,34.755 89.660,32.155 89.660,28.964 L89.660,11.050 C91.882,10.408 93.512,8.371 93.512,5.932 C93.512,2.997 91.131,0.607 88.206,0.607 C85.280,0.607 82.899,2.997 82.899,5.932 C82.899,8.355 84.529,10.408 86.751,11.050 L86.751,28.964 C86.751,30.552 85.456,31.851 83.874,31.851 L71.325,31.851 C70.526,31.851 69.871,32.508 69.871,33.311 C69.887,34.097 70.542,34.755 71.341,34.755 L71.341,34.755 ZM85.808,5.932 C85.808,4.601 86.879,3.526 88.206,3.526 C89.532,3.526 90.603,4.601 90.603,5.932 C90.603,7.264 89.532,8.339 88.206,8.339 C86.879,8.339 85.808,7.264 85.808,5.932 L85.808,5.932 ZM89.660,70.412 L89.660,54.742 C89.660,51.550 87.071,48.951 83.890,48.951 L71.341,48.951 C70.542,48.951 69.887,49.608 69.887,50.410 C69.887,51.213 70.542,51.871 71.341,51.871 L83.890,51.871 C85.472,51.871 86.767,53.170 86.767,54.758 L86.767,70.429 C84.545,71.069 82.915,73.107 82.915,75.546 C82.915,78.481 85.296,80.871 88.222,80.871 C91.147,80.871 93.528,78.481 93.528,75.546 C93.512,73.107 91.882,71.054 89.660,70.412 L89.660,70.412 ZM88.206,77.951 C86.879,77.951 85.808,76.877 85.808,75.546 C85.808,74.214 86.879,73.139 88.206,73.139 C89.532,73.139 90.603,74.214 90.603,75.546 C90.619,76.861 89.532,77.951 88.206,77.951 L88.206,77.951 ZM88.206,36.535 C85.792,36.535 83.746,38.171 83.107,40.401 L71.325,40.401 C70.526,40.401 69.871,41.059 69.871,41.860 C69.871,42.663 70.526,43.320 71.325,43.320 L83.107,43.320 C83.746,45.550 85.776,47.186 88.206,47.186 C91.131,47.186 93.512,44.796 93.512,41.860 C93.512,38.925 91.131,36.535 88.206,36.535 L88.206,36.535 ZM88.206,44.267 C86.879,44.267 85.808,43.192 85.808,41.860 C85.808,40.530 86.879,39.454 88.206,39.454 C89.532,39.454 90.603,40.530 90.603,41.860 C90.619,43.192 89.532,44.267 88.206,44.267 L88.206,44.267 ZM30.007,48.951 L17.475,48.951 C14.294,48.951 11.705,51.550 11.705,54.742 L11.705,70.412 C9.483,71.054 7.852,73.091 7.852,75.529 C7.852,78.465 10.234,80.855 13.159,80.855 C16.084,80.855 18.466,78.465 18.466,75.529 C18.466,73.107 16.836,71.054 14.614,70.412 L14.614,54.742 C14.614,53.154 15.908,51.854 17.491,51.854 L30.039,51.854 C30.839,51.854 31.494,51.196 31.494,50.395 C31.462,49.608 30.806,48.951 30.007,48.951 L30.007,48.951 ZM15.541,75.529 C15.541,76.861 14.470,77.935 13.143,77.935 C11.816,77.935 10.746,76.861 10.746,75.529 C10.746,74.198 11.816,73.123 13.143,73.123 C14.470,73.123 15.541,74.198 15.541,75.529 L15.541,75.529 ZM30.007,31.851 L17.475,31.851 C15.892,31.851 14.598,30.552 14.598,28.964 L14.598,11.050 C16.819,10.408 18.450,8.371 18.450,5.932 C18.450,2.997 16.068,0.607 13.143,0.607 C10.218,0.607 7.836,2.997 7.836,5.932 C7.836,8.355 9.467,10.408 11.689,11.050 L11.689,28.964 C11.689,32.155 14.278,34.755 17.459,34.755 L30.007,34.755 C30.806,34.755 31.462,34.097 31.462,33.294 C31.462,32.493 30.806,31.851 30.007,31.851 L30.007,31.851 ZM10.730,5.932 C10.730,4.601 11.800,3.526 13.127,3.526 C14.454,3.526 15.524,4.601 15.524,5.932 C15.524,7.264 14.454,8.339 13.127,8.339 C11.800,8.339 10.730,7.264 10.730,5.932 L10.730,5.932 ZM30.007,40.401 L18.242,40.401 C17.602,38.171 15.573,36.535 13.143,36.535 C10.218,36.535 7.836,38.925 7.836,41.860 C7.836,44.796 10.218,47.186 13.143,47.186 C15.557,47.186 17.602,45.550 18.242,43.320 L30.023,43.320 C30.822,43.320 31.478,42.663 31.478,41.860 C31.462,41.059 30.806,40.401 30.007,40.401 L30.007,40.401 ZM13.143,44.267 C11.816,44.267 10.746,43.192 10.746,41.860 C10.746,40.530 11.816,39.454 13.143,39.454 C14.470,39.454 15.541,40.530 15.541,41.860 C15.541,43.192 14.470,44.267 13.143,44.267 L13.143,44.267 ZM51.090,37.129 C52.257,37.353 53.072,38.300 53.104,39.454 C53.104,40.257 52.784,40.915 52.129,41.395 C51.921,41.540 51.873,41.684 51.873,41.909 C51.873,42.952 51.873,43.978 51.873,45.021 L51.873,45.021 C51.905,45.454 51.681,45.871 51.298,46.063 C50.387,46.529 49.492,45.871 49.492,45.021 L49.492,45.021 C49.492,43.978 49.492,42.952 49.492,41.909 C49.492,41.700 49.460,41.572 49.268,41.428 C48.325,40.738 48.021,39.567 48.485,38.524 C48.932,37.513 50.035,36.920 51.090,37.129 L51.090,37.129 ZM63.477,49.112 C63.477,49.592 63.094,49.977 62.614,49.977 L38.735,49.978 C38.255,49.978 37.872,49.592 37.872,49.112 L37.872,33.343 C37.872,32.861 38.255,32.477 38.735,32.477 L62.598,32.477 C63.078,32.477 63.461,32.861 63.461,33.343 L63.461,49.112 L63.477,49.112 Z"/>
</svg>