<svg xmlns="http://www.w3.org/2000/svg" viewBox="0 0 450.71 356.97"><defs><style>.cls-1{fill:#cae6fe;}.cls-2{fill:#abd3f2;}.cls-3{fill:#90c3ef;}.cls-4{fill:#18184b;}.cls-5{fill:#304e7e;}.cls-11,.cls-20,.cls-6{fill:#fff;}.cls-6{opacity:0.4;}.cls-7{fill:#007ce6;}.cls-8{fill:#61b3ff;}.cls-9{fill:#009ef3;}.cls-10{fill:#fda893;}.cls-12{fill:#16162f;}.cls-13{fill:#2a3554;}.cls-14{fill:#ededed;}.cls-15{fill:#1d3062;}.cls-16{fill:#fb876b;}.cls-17{fill:#d45c48;}.cls-18{fill:#fba691;}.cls-19{fill:#5aeaff;}.cls-20{opacity:0.2;}</style></defs><g id="Слой_2" data-name="Слой 2"><g id="OBJECTS"><ellipse class="cls-1" cx="219.38" cy="340.71" rx="219.38" ry="16.26"/><path class="cls-2" d="M254.06,319.55c16.88-13.06,33.74-27.71,43.77-38.72,13.09-14.39,20.06-26.83,20.7-37a1.22,1.22,0,0,0-2.44-.15c-1.12,17.74-23.45,43.58-64.63,74.79Z"/><path class="cls-1" d="M308.43,267s6.79,7.62,19.72-4.83C328.15,262.2,314.46,253.48,308.43,267Z"/><path class="cls-1" d="M302.1,273.8s8-6.35-3.73-20C298.37,253.84,288.9,267,302.1,273.8Z"/><path class="cls-1" d="M315.74,251.26s9.65-3.32,3.14-20C318.88,231.21,305.56,240.48,315.74,251.26Z"/><path class="cls-1" d="M289.77,287.8s3.8,9.46,20.19,2.12C310,289.92,300,277.08,289.77,287.8Z"/><path class="cls-1" d="M282.27,293.71s9-4.87-.22-20.3C282.05,273.41,270.45,284.76,282.27,293.71Z"/><path class="cls-1" d="M272.81,302.82s3.62,9.54,20.14,2.51C293,305.33,283.26,292.31,272.81,302.82Z"/><path class="cls-2" d="M88.42,207.87c-12.15-17.55-23.8-36.6-30-50.13-8.13-17.67-11-31.64-8.56-41.5a1.22,1.22,0,1,1,2.37.59c-4.29,17.25,9.19,48.63,39,90.82Z"/><path class="cls-1" d="M52.45,141.38s-8.77,5.22-17.34-10.56C35.11,130.82,50.8,126.64,52.45,141.38Z"/><path class="cls-1" d="M56.45,149.74s-5.7-8.46,9.58-17.89C66,131.85,71.07,147.28,56.45,149.74Z"/><path class="cls-1" d="M50.25,124.14s-8.19-6.08,3.06-20.07C53.31,104.07,63.21,116.94,50.25,124.14Z"/><path class="cls-1" d="M64,166.81s-6.49,7.88-19.89-4.07C44.08,162.74,57.43,153.5,64,166.81Z"/><path class="cls-1" d="M69.33,174.72s-7.07-7.36,6.34-19.29C75.67,155.43,83.31,169.76,69.33,174.72Z"/><path class="cls-1" d="M75.6,186.26s-6.34,8-20-3.69C55.64,182.57,68.81,173.08,75.6,186.26Z"/><path class="cls-2" d="M319.19,31.74c-15.58-.36-19.72,14-31.16,10s-22.55.4-23.65,11.05-1.31,18.56-14.26,19.4S226.75,85.63,234,94.29c1.79,2.16,3.74,4.5,5.65,6.78l1.55,1.86.36.42A23.51,23.51,0,0,0,272.59,108c4-2.71,7-6.53,7.17-11.92.44-16.87,14.14-6.31,23.66-13.38,11-8.13,5.34-20,14.11-25.13C329.73,50.36,334.77,32.1,319.19,31.74Z"/><path class="cls-3" d="M307.12,48.14l-67.5,52.93,1.55,1.86L308.61,50a1.21,1.21,0,0,0-1.49-1.9Z"/><path class="cls-1" d="M267.76,1.75c-13.65,7.52-10,22-21.95,24.26s-19.29,11.66-14.9,21.43,8.18,16.7-2.59,23.93-13.43,23.4-2.85,27.27l8.29,3,2.28.82.52.19a23.5,23.5,0,0,0,29.18-11.59c2.13-4.37,2.81-9.18.22-13.91-8.09-14.81,9.06-12.56,13.75-23.45,5.39-12.54-5.41-19.95-.42-28.82C286.24,12.57,281.42-5.76,267.76,1.75Z"/><path class="cls-2" d="M265.55,22l-31.79,79.67,2.28.82L267.8,22.9a1.21,1.21,0,1,0-2.25-.9Z"/><path class="cls-2" d="M64.29,209.74c14.34,6.1,12.2,20.87,24.28,21.92s20.38,9.66,17,19.81-6.45,17.45,5,23.56,15.72,21.92,5.58,26.84c-2.52,1.23-5.26,2.55-7.94,3.84L106,306.77l-.5.24a23.52,23.52,0,0,1-30.21-8.6c-2.55-4.12-3.71-8.84-1.62-13.8,6.56-15.56-10.28-11.59-16-21.95C51,250.73,61,242.27,55.15,234,47,222.37,49.94,203.65,64.29,209.74Z"/><path class="cls-3" d="M68.53,229.66l39.67,76L106,306.77l-39.64-76a1.21,1.21,0,0,1,2.15-1.12Z"/><path class="cls-1" d="M28.86,244.65c15.58.57,18.86,15.13,30.52,11.79s22.48,1.73,22.95,12.43.22,18.6,13.09,20.21,22.53,14.85,14.82,23.07l-6,6.43-1.66,1.76-.38.4a23.51,23.51,0,0,1-31.28,2.78c-3.86-2.94-6.63-6.93-6.45-12.32.56-16.86-13.75-7.14-22.83-14.76-10.46-8.77-4.15-20.24-12.6-25.92C17.24,262.62,13.29,244.09,28.86,244.65Z"/><path class="cls-2" d="M40,261.74l64.24,56.84-1.66,1.76L38.34,263.55A1.21,1.21,0,1,1,40,261.74Z"/><path class="cls-2" d="M402,338.78c2.45-11.18,14.58-3,23.24-9.46,11-8.13,5.34-20,14.11-25.13,12.2-7.19,17.24-25.45,1.66-25.81s-19.72,14-31.17,9.95-22.54.4-23.64,11.05-1.32,18.56-14.26,19.4c-11.91.77-21.68,11.54-17.56,20Z"/><path class="cls-3" d="M376.7,338.78l53.68-42.1a1.21,1.21,0,1,0-1.49-1.9l-56.11,44Z"/><path class="cls-1" d="M387,338.78c.19-.34.38-.7.55-1,2.12-4.37,2.8-9.18.22-13.91-8.09-14.81,9.06-12.56,13.74-23.45,5.4-12.54-5.4-19.95-.41-28.82,6.94-12.34,2.13-30.67-11.53-23.16s-10,22-22,24.26-19.3,11.67-14.9,21.43,8.18,16.7-2.6,23.93c-7.43,5-11,14.25-9,20.77Z"/><path class="cls-2" d="M362,338.78l27.63-69.24a1.21,1.21,0,1,0-2.25-.9l-28,70.14Z"/><rect class="cls-4" x="84.08" y="73.48" width="187.03" height="267" rx="6.48"/><rect class="cls-5" x="97.46" y="50.53" width="160.27" height="274.46" rx="6.48"/><path class="cls-4" d="M118.17,50.53H237a4,4,0,0,0-3.95-4h-111A4,4,0,0,0,118.17,50.53Z"/><rect class="cls-4" x="122.57" y="310.19" width="110.05" height="3.85" rx="1.22"/><path class="cls-1" d="M241.38,78.75v68a5.39,5.39,0,0,1-5.4,5.39H119.22a5.53,5.53,0,0,1-1.69-.26,5.4,5.4,0,0,1-3.71-5.13v-68a5.39,5.39,0,0,1,5.4-5.39H236A5.39,5.39,0,0,1,241.38,78.75Z"/><path class="cls-6" d="M230.38,73.36l-78.82,78.81H119.22a5.53,5.53,0,0,1-1.69-.26l78.55-78.55Z"/><polygon class="cls-6" points="163.3 73.36 113.82 122.83 113.82 111.55 152.01 73.36 163.3 73.36"/><polygon class="cls-6" points="241.38 102.79 241.38 114.08 203.28 152.17 192 152.17 241.38 102.79"/><path class="cls-1" d="M144.25,170.87H118.5a4.92,4.92,0,0,1-4.93-4.92h0A4.92,4.92,0,0,1,118.5,161h25.75a4.92,4.92,0,0,1,4.93,4.93h0A4.92,4.92,0,0,1,144.25,170.87Z"/><path class="cls-1" d="M190.48,170.87H164.72a4.93,4.93,0,0,1-4.93-4.92h0a4.93,4.93,0,0,1,4.93-4.93h25.76a4.93,4.93,0,0,1,4.93,4.93h0A4.93,4.93,0,0,1,190.48,170.87Z"/><path class="cls-1" d="M236.7,170.87H211A4.92,4.92,0,0,1,206,166h0A4.92,4.92,0,0,1,211,161H236.7a4.93,4.93,0,0,1,4.93,4.93h0A4.93,4.93,0,0,1,236.7,170.87Z"/><path class="cls-1" d="M146.11,202.12h-31a2.92,2.92,0,0,1-2.76-3.06V184.18a2.92,2.92,0,0,1,2.76-3.05h31a2.92,2.92,0,0,1,2.76,3.05v14.88A2.92,2.92,0,0,1,146.11,202.12Z"/><path class="cls-1" d="M193.08,202.12h-31a2.92,2.92,0,0,1-2.76-3.06V184.18a2.92,2.92,0,0,1,2.76-3.05h31a2.92,2.92,0,0,1,2.76,3.05v14.88A2.92,2.92,0,0,1,193.08,202.12Z"/><path class="cls-1" d="M240,202.12H209.09a2.92,2.92,0,0,1-2.76-3.06V184.18a2.91,2.91,0,0,1,2.76-3.05H240a2.92,2.92,0,0,1,2.77,3.05v14.88A2.93,2.93,0,0,1,240,202.12Z"/><path class="cls-1" d="M146.11,235.11h-31a2.92,2.92,0,0,1-2.76-3.06V217.17a2.92,2.92,0,0,1,2.76-3h31a2.92,2.92,0,0,1,2.76,3v14.88A2.92,2.92,0,0,1,146.11,235.11Z"/><path class="cls-1" d="M193.08,235.11h-31a2.92,2.92,0,0,1-2.76-3.06V217.17a2.92,2.92,0,0,1,2.76-3h31a2.92,2.92,0,0,1,2.76,3v14.88A2.92,2.92,0,0,1,193.08,235.11Z"/><path class="cls-1" d="M240,235.11H209.09a2.92,2.92,0,0,1-2.76-3.06V217.17a2.91,2.91,0,0,1,2.76-3H240a2.92,2.92,0,0,1,2.77,3v14.88A2.93,2.93,0,0,1,240,235.11Z"/><path class="cls-1" d="M146.11,268.1h-31a2.92,2.92,0,0,1-2.76-3.05V250.17a2.92,2.92,0,0,1,2.76-3.06h31a2.92,2.92,0,0,1,2.76,3.06v14.88A2.92,2.92,0,0,1,146.11,268.1Z"/><path class="cls-1" d="M193.08,268.1h-31a2.92,2.92,0,0,1-2.76-3.05V250.17a2.92,2.92,0,0,1,2.76-3.06h31a2.92,2.92,0,0,1,2.76,3.06v14.88A2.92,2.92,0,0,1,193.08,268.1Z"/><path class="cls-1" d="M240,268.1H209.09a2.91,2.91,0,0,1-2.76-3.05V250.17a2.92,2.92,0,0,1,2.76-3.06H240a2.93,2.93,0,0,1,2.77,3.06v14.88A2.92,2.92,0,0,1,240,268.1Z"/><path class="cls-7" d="M146.11,300.45h-31a2.92,2.92,0,0,1-2.76-3.06V282.51a2.92,2.92,0,0,1,2.76-3.05h31a2.92,2.92,0,0,1,2.76,3.05v14.88A2.92,2.92,0,0,1,146.11,300.45Z"/><path class="cls-8" d="M193.08,300.45h-31a2.92,2.92,0,0,1-2.76-3.06V282.51a2.92,2.92,0,0,1,2.76-3.05h31a2.92,2.92,0,0,1,2.76,3.05v14.88A2.92,2.92,0,0,1,193.08,300.45Z"/><path class="cls-9" d="M240,300.45H209.09a2.92,2.92,0,0,1-2.76-3.06V282.51a2.91,2.91,0,0,1,2.76-3.05H240a2.92,2.92,0,0,1,2.77,3.05v14.88A2.93,2.93,0,0,1,240,300.45Z"/><path class="cls-10" d="M399.82,306.31l6.61,8.92s-1.34,3.89-6.45,6.79l-7.91-10.27Z"/><path class="cls-7" d="M401.18,319.33s-3.18-.73-4.29.3-4.18,15.38-6.81,18.47-.1,4.83,1.46,5.51,24.64-20.49,24.64-20.49-5.41-7.54-8.07-9.05S404.07,317.87,401.18,319.33Z"/><path class="cls-11" d="M400.47,327.29a.54.54,0,0,0,.31-.3.55.55,0,0,0-.32-.71,9.15,9.15,0,0,0-4.25-.53,3.84,3.84,0,0,0-3,2.58.53.53,0,0,0,.41.66.57.57,0,0,0,.69-.39,2.74,2.74,0,0,1,2.15-1.77,8,8,0,0,1,3.59.47A.63.63,0,0,0,400.47,327.29Z"/><path class="cls-11" d="M400.78,325.07a.53.53,0,0,0,.31-.31.54.54,0,0,0-.32-.71,9.2,9.2,0,0,0-4.25-.52,3.84,3.84,0,0,0-3,2.57.55.55,0,0,0,.41.67.58.58,0,0,0,.69-.39,2.75,2.75,0,0,1,2.15-1.78,8.09,8.09,0,0,1,3.59.47A.58.58,0,0,0,400.78,325.07Z"/><path class="cls-11" d="M399.5,329.66a.59.59,0,0,0,.31-.31.54.54,0,0,0-.32-.71,9.06,9.06,0,0,0-4.25-.52,3.82,3.82,0,0,0-3,2.57.53.53,0,0,0,.41.66.57.57,0,0,0,.69-.39,2.74,2.74,0,0,1,2.15-1.77,7.94,7.94,0,0,1,3.59.47A.63.63,0,0,0,399.5,329.66Z"/><path class="cls-12" d="M359.51,186.41l4.81,58.53a144.68,144.68,0,0,1,13.48,20.64c4.73,9.1,25,41.74,25,41.74l-10.24,8-51.11-60.07-10-70.07Z"/><path class="cls-10" d="M346.26,321.2l-.8,11.35s-3.6,2.27-9.47,1.34l.69-13.26Z"/><path class="cls-7" d="M338,332.26s-2-2.72-3.66-2.59-14,10.1-18.27,10.94-3.41,4-2.62,5.58,33.88,0,33.88,0,1-10.71-.11-13.73S341.36,333,338,332.26Z"/><path class="cls-11" d="M331.7,338.21a.59.59,0,0,0,.45,0,.57.57,0,0,0,.24-.77,8.63,8.63,0,0,0-2.83-3.21,3.94,3.94,0,0,0-4,0,.57.57,0,0,0,.64.94,2.79,2.79,0,0,1,2.84,0,7.71,7.71,0,0,1,2.37,2.73A.58.58,0,0,0,331.7,338.21Z"/><path class="cls-11" d="M333.47,336.68a.56.56,0,0,0,.44,0,.58.58,0,0,0,.25-.77,8.83,8.83,0,0,0-2.83-3.21,4,4,0,0,0-4,0,.58.58,0,0,0-.15.79.57.57,0,0,0,.79.15,2.8,2.8,0,0,1,2.84,0,7.67,7.67,0,0,1,2.38,2.73A.55.55,0,0,0,333.47,336.68Z"/><path class="cls-11" d="M329.35,339.41a.55.55,0,0,0,.45,0,.56.56,0,0,0,.24-.76,8.73,8.73,0,0,0-2.83-3.22,3.93,3.93,0,0,0-4,0,.57.57,0,0,0,.64.94,2.82,2.82,0,0,1,2.84,0,7.71,7.71,0,0,1,2.37,2.74A.56.56,0,0,0,329.35,339.41Z"/><path class="cls-13" d="M391.41,188.83s-13.26,43.34-29.76,66.5c0,0-2.9,22.84-7.25,34.95-1.91,5.29-7.16,37-7.16,37l-1.95-.32-1.16-.21-8.68-1.45,5.65-75.55,20.54-59.29,24.8-1.33,1.31-.07Z"/><path class="cls-12" d="M387.75,189l-28.67,66.29c0,.08-4.47,18.15-7,30.87-2.31,11.31-5.73,31-6.75,40.74l-1.16-.21c1-9.8,4.39-29.19,6.75-40.77,2.58-12.73,7.05-30.82,7.09-31l28.47-65.84Z"/><path class="cls-9" d="M325.88,89.76,312.61,116l14-1.22S328,98.89,325.88,89.76Z"/><path class="cls-8" d="M392.67,190.32A119,119,0,0,1,371.52,196l-1,.16-.52.08-1.14.17-1.28.18a115.4,115.4,0,0,1-14.64,1c-1,0-2,0-3,0h-.19l-.76,0-.45,0a120.54,120.54,0,0,1-17.3-1.83c-.13-1.28-.3-3.18-.51-5.57,0-.45-.08-.91-.11-1.39-.3-3.42-.65-7.69-1-12.51,0-.41-.06-.83-.1-1.25-.25-3.21-.52-6.64-.78-10.23,0-.42-.07-.83-.1-1.25-.27-3.68-.55-7.5-.82-11.38-.17-2.37-.33-4.76-.49-7.15s-.32-4.86-.47-7.27c0-.53-.07-1-.1-1.58-1.42-22.83-2.28-43.85-.9-46.32,1-1.71,3.32-3.83,6.12-6l1.05-.8c1.2-.9,11.21-5.3,12.46-6.19l10.84-1.71c.07,0,10.8,2.65,10.88,2.68.47.22.94.43,1.41.66a61.54,61.54,0,0,1,10.45,5.74,10.71,10.71,0,0,1,.92.78,6.27,6.27,0,0,1,.57.61,3.59,3.59,0,0,1,.46.93c1.74,4.68,4.07,23.46,6.2,43.94.05.49.09,1,.15,1.47l.15,1.47.15,1.48c.06.65.13,1.3.2,2,0,.44.09.9.13,1.34,0,.23,0,.45.07.67s0,.33.05.49l.27,2.85c.09.82.17,1.63.25,2.45.77,8,1.49,15.92,2.1,22.87q.27,3,.5,5.66c0,.41.07.83.1,1.23C392,181.75,392.46,187.5,392.67,190.32Z"/><path class="cls-9" d="M390.76,167.45A124.9,124.9,0,0,1,370.3,190l-2.63-18.82c3.67-7.41,12.19-23.48,19.72-39.26l.15,1.47.15,1.48c.06.65.13,1.3.2,2,0,.44.09.9.13,1.34,0,.23,0,.45.07.67s0,.33.05.49l.27,2.85c.09.82.17,1.63.25,2.45C389.43,152.63,390.15,160.5,390.76,167.45Z"/><path class="cls-9" d="M343.93,109l-12.55.36s.85,15.2,7.46,14.16S343.93,109,343.93,109Z"/><path class="cls-9" d="M378.06,173.59h0c-11.79,1-22.31-3.51-29.06-7.45a64.41,64.41,0,0,1-11.94-8.86.56.56,0,0,1,0-.8.58.58,0,0,1,.81,0,63.81,63.81,0,0,0,11.74,8.69c6.6,3.85,16.89,8.23,28.36,7.29a.57.57,0,0,1,.62.52A.58.58,0,0,1,378.06,173.59Z"/><path class="cls-9" d="M366.13,178.66c-10.22.89-20.92-4-21.41-4.28a.57.57,0,0,1,.48-1c.13.06,12.72,5.87,23.26,3.84a.58.58,0,0,1,.67.45.58.58,0,0,1-.46.67A24.22,24.22,0,0,1,366.13,178.66Z"/><polygon class="cls-11" points="347.9 161.56 354.71 177.67 360.91 162.19 353.5 97.58 353.21 95.15 350.27 94.99 350.15 98.31 347.9 161.56"/><polygon class="cls-14" points="350.15 98.31 351.7 99.93 353.5 97.58 353.21 95.15 350.27 94.99 350.15 98.31"/><polygon class="cls-11" points="356.65 91.38 351.43 97.46 347.13 90.88 350.28 84.26 356.65 91.38"/><path class="cls-9" d="M357.92,74.32l1.75,1c.48.29.95.59,1.39.92a3.42,3.42,0,0,1,1.7,3.7,3.89,3.89,0,0,1-.12.78h0L360.82,96,350.28,84.26S356.92,81.23,357.92,74.32Z"/><path class="cls-9" d="M345.51,76s-4,4.48-2.28,9.26l2.7,8.14,4.35-9.15S346.43,82.36,345.51,76Z"/><path class="cls-15" d="M365.25,46.17c.83,9.47-4.44,16.5-13.91,17.32s-16.68-5.62-17.51-15.09S338,31.27,347.47,30.45C358.83,29.46,364.43,36.7,365.25,46.17Z"/><path class="cls-15" d="M364.67,51.92s1.86-2.67,1-9-3.13-8-3.13-8,2.29-4.81-.31-5.94a4.85,4.85,0,0,0-4.65.4s1.57-3-.28-3.23S353,27.78,353,27.78s-13.35-3.72-17.14-.54-.36,11.36.78,12.21Z"/><path class="cls-16" d="M363.48,50.43s2.32-3.74,4.53-1,.19,11.54-4.78,9.87Z"/><path class="cls-17" d="M364,56.55a.43.43,0,0,0,.37-.33,6.27,6.27,0,0,1,3.18-4,.4.4,0,0,0,.19-.55.41.41,0,0,0-.54-.19,7,7,0,0,0-3.63,4.62.4.4,0,0,0,.32.47Z"/><path class="cls-17" d="M366.7,55a.48.48,0,0,0,.21-.09.4.4,0,0,0,.07-.57,3.72,3.72,0,0,0-1.62-1.09.41.41,0,0,0-.52.25.4.4,0,0,0,.25.52,3.07,3.07,0,0,1,1.25.82A.42.42,0,0,0,366.7,55Z"/><path class="cls-16" d="M336.36,52.79s-2.94-3.28-4.64-.21,1.81,11.4,6.41,8.89Z"/><path class="cls-17" d="M336.86,58.91a.4.4,0,0,1-.42-.26,6.27,6.27,0,0,0-3.83-3.42.4.4,0,0,1-.28-.5.39.39,0,0,1,.5-.28,7,7,0,0,1,4.37,3.91.41.41,0,0,1-.23.53Z"/><path class="cls-17" d="M334,57.82a.45.45,0,0,1-.23,0,.41.41,0,0,1-.17-.55A3.68,3.68,0,0,1,335,55.87a.41.41,0,1,1,.4.71,2.92,2.92,0,0,0-1.09,1A.41.41,0,0,1,334,57.82Z"/><path class="cls-18" d="M344.83,68.21l.75,8.52s-.46,8.08,6,7.47c3.45-.33,6.52-7.65,6.52-7.65l-.77-8.82Z"/><path class="cls-16" d="M344.83,68.21l.33,3.78c2.53,2.36,6.68,2.64,12.67,1.22l-.48-5.48Z"/><path class="cls-18" d="M334,47.11a82.07,82.07,0,0,0,2,10.66c.23.82.47,1.58.73,2.26,2.34,6.12,7.76,16.5,19.93,10.92,5.38-2.46,7.41-8.86,8-15.24A61,61,0,0,0,364.49,44a8.94,8.94,0,0,0-5.18-7.18c-7.77-3.56-15.46-1.31-20.44,1.11A8.92,8.92,0,0,0,334,47.11Z"/><path class="cls-15" d="M354.59,51.71c.07.91.61,1.6,1.19,1.55s1-.83.9-1.74-.61-1.6-1.19-1.55S354.51,50.8,354.59,51.71Z"/><path class="cls-15" d="M342.44,52.76c.08.91.61,1.61,1.19,1.56s1-.83.9-1.74S343.92,51,343.34,51,342.36,51.85,342.44,52.76Z"/><path class="cls-15" d="M340.15,47.27s3.19-1.6,5.83-.72L345.85,48s-3.77,0-5.58.93A2.4,2.4,0,0,1,340.15,47.27Z"/><path class="cls-15" d="M359.4,45.59s-3.42-1-5.87.31l.38,1.39s3.71-.64,5.65,0A2.52,2.52,0,0,0,359.4,45.59Z"/><path class="cls-16" d="M350.17,59.29a4.33,4.33,0,0,0,1.48-.26.4.4,0,0,0,.24-.52.41.41,0,0,0-.52-.25,2.41,2.41,0,0,1-1.63.1.46.46,0,0,1-.19-.38,62.14,62.14,0,0,1,.46-6.21.4.4,0,1,0-.8-.1,58.8,58.8,0,0,0-.47,6.36,1.21,1.21,0,0,0,.56,1A1.73,1.73,0,0,0,350.17,59.29Z"/><path class="cls-11" d="M355.92,61.23c-.19,1.7-1,4.85-4.73,5.18s-5-2.39-5.52-4.29Z"/><path class="cls-16" d="M351.72,68.89a4.25,4.25,0,0,1-2-.38.41.41,0,0,1-.18-.55.4.4,0,0,1,.54-.18,3.56,3.56,0,0,0,1.59.3,3.5,3.5,0,0,0,1.44-.56.4.4,0,0,1,.57.08.41.41,0,0,1-.09.57A4.15,4.15,0,0,1,351.72,68.89Z"/><path class="cls-15" d="M334.89,53l1.84-.16a13.27,13.27,0,0,1,.53-5.64c1-3.47-1.83-4.73.18-6.6s7.44-1.62,11.17-2.06,9.79-.92,11.29-.71.9,2.72.53,4.66,2.14,3.81,2.71,5.74a8.71,8.71,0,0,1,.2,2.29l1.52-.13c0-2.39-.19-4.61-.37-6.4a8.94,8.94,0,0,0-5.18-7.18c-7.77-3.56-15.46-1.31-20.44,1.11a8.92,8.92,0,0,0-4.92,9.2C334.19,48.91,334.51,51,334.89,53Z"/><path class="cls-11" d="M343.88,58.47a4.72,4.72,0,1,1,4.3-5.11A4.73,4.73,0,0,1,343.88,58.47Zm-.76-8.68a4,4,0,1,0,4.32,3.63A4,4,0,0,0,343.12,49.79Z"/><path class="cls-11" d="M356.75,57.35a4.72,4.72,0,1,1,4.3-5.11A4.73,4.73,0,0,1,356.75,57.35ZM356,48.67a4,4,0,1,0,4.32,3.63A4,4,0,0,0,356,48.67Z"/><path class="cls-11" d="M339.43,52.59a.34.34,0,0,1-.27-.09h0a5.86,5.86,0,0,0-5.09-1,.37.37,0,0,1-.47-.23.39.39,0,0,1,.24-.47,6.47,6.47,0,0,1,5.79,1.15.37.37,0,0,1,.05.52A.38.38,0,0,1,339.43,52.59Z"/><path class="cls-11" d="M360.21,50.78a.39.39,0,0,1-.33-.14.37.37,0,0,1,.07-.51c.13-.11,3.27-2.55,6.15-2.33a.38.38,0,0,1,.34.4.38.38,0,0,1-.4.34c-2.58-.2-5.61,2.14-5.64,2.17A.34.34,0,0,1,360.21,50.78Z"/><path class="cls-11" d="M351.8,52a3,3,0,0,0-2.13-1,2.7,2.7,0,0,0-1.83,1.36l-.65-.35a3.41,3.41,0,0,1,2.41-1.74,3.69,3.69,0,0,1,2.76,1.26Z"/><path class="cls-19" d="M380.52,112.78l-5.31,72.57a5.93,5.93,0,0,1-6.35,5.48l-123.24-9a5.93,5.93,0,0,1-5.48-6.35l5.31-72.57a5.93,5.93,0,0,1,6.34-5.48l123.25,9A5.94,5.94,0,0,1,380.52,112.78Z"/><rect class="cls-15" x="303.67" y="57.18" width="16.13" height="135.43" transform="matrix(0.07, -1, 1, 0.07, 164.42, 426.69)"/><rect class="cls-8" x="311.29" y="42.16" width="3.09" height="135.43" transform="translate(180.43 413.86) rotate(-85.82)"/><path class="cls-20" d="M330.9,103.21l-89,76.9a5.93,5.93,0,0,1-1.73-4.64L242,150l56.9-49.14Z"/><polygon class="cls-20" points="374.78 106.42 284.22 184.64 268.56 183.49 359.13 105.28 374.78 106.42"/><path class="cls-16" d="M291.35,182.26l-1.6,1.86s-4.59-.33-5-2.25a1.61,1.61,0,0,1,.58-1.79Z"/><path class="cls-18" d="M293,192.57a5.29,5.29,0,0,1-5.78-7c1.55-5.15,4.42-8.76,6.41-7.69.75.4.6,3.44-.42,5.64a21.33,21.33,0,0,0,2.17-5.13c.71-2.75,4.11-1.42,3.25,2.05s-1.25,4-1.25,4a15.15,15.15,0,0,0,1.81-4.34c.22-1.72,2.91-1.24,2.32,2.1-.27,1.55-.6,3.32-.6,3.32s.78-2.2,1.19-3.34,2-1.86,2.22.65c.18,2,.3,7.33-2.35,8.21A67.84,67.84,0,0,1,293,192.57Z"/><path class="cls-18" d="M338.88,189.14c-.11-1.79,3.78-1.68,5.69-2.74s6.35-4.59,5.51-5.5a15.69,15.69,0,0,0-3-2.15c-.85-.57-1.49-2.22-.56-2.42s3.94,1.15,5.16,2.1a26.8,26.8,0,0,1,1.77,2,4.68,4.68,0,0,0,3,1.63c1-1.06,2.14-2.26,2.86-2.84,1.59.1,7,3.88,5.76,7a47.16,47.16,0,0,1-3.49,4.09c-7.51,6.83-11.92,6.49-13.74,6.45a2.39,2.39,0,0,1-2.17-2,2.16,2.16,0,0,1-1.68-2c-2.58-.65-2.21-2.39-2.21-2.39S339,190.93,338.88,189.14Z"/><path class="cls-8" d="M394.34,154.73a62.24,62.24,0,0,1-28.17,31.77l-7.47-6.6s15.14-11.94,22.08-29.71c.05-.13.11-.27.16-.41l-.09-.61-7.66-49.79s.69-5.72,7.47-13.8C380.66,85.58,397.35,112.22,394.34,154.73Z"/><path class="cls-9" d="M387,152.21a.49.49,0,0,1-.43.24.54.54,0,0,1-.25-.06,31.59,31.59,0,0,0-5.55-2.2c.05-.13.11-.27.16-.41l-.09-.61a31.67,31.67,0,0,1,6,2.35A.51.51,0,0,1,387,152.21Z"/></g></g></svg>