<svg
xmlns="http://www.w3.org/2000/svg"
xmlns:xlink="http://www.w3.org/1999/xlink"
width="94px" height="95px">
<defs>
<filter filterUnits="userSpaceOnUse" id="Filter_0" x="0px" y="0px" width="94px" height="95px"  >
	<feOffset in="SourceAlpha" dx="0" dy="8" />
	<feGaussianBlur result="blurOut" stdDeviation="2.828" />
	<feFlood flood-color="rgb(11, 92, 233)" result="floodOut" />
	<feComposite operator="atop" in="floodOut" in2="blurOut" />
	<feComponentTransfer><feFuncA type="linear" slope="0.4"/></feComponentTransfer>
	<feMerge>
		<feMergeNode/>
		<feMergeNode in="SourceGraphic"/>
	</feMerge>
</filter>
<linearGradient id="PSgrad_0" x1="0%" x2="65.606%" y1="0%" y2="75.471%">
	<stop offset="0%" stop-color="rgb(11,92,233)" stop-opacity="1" />
	<stop offset="100%" stop-color="rgb(115,32,249)" stop-opacity="1" />
</linearGradient>

</defs>
<g filter="url(#Filter_0)">
<path fill-rule="evenodd"  fill="rgb(0, 167, 157)"
	  d="M76.306,78.177 L76.306,75.587 L85.434,75.587 L85.434,78.177 L76.306,78.177 ZM82.826,70.406 L85.434,70.406 L85.434,72.996 L82.826,72.996 L82.826,70.406 ZM76.306,65.225 L85.434,65.225 L85.434,67.816 L76.306,67.816 L76.306,65.225 ZM76.306,12.123 L85.434,12.123 L85.434,14.713 L76.306,14.713 L76.306,12.123 ZM82.826,6.942 L85.434,6.942 L85.434,9.532 L82.826,9.532 L82.826,6.942 ZM76.306,1.762 L85.434,1.762 L85.434,4.351 L76.306,4.351 L76.306,1.762 ZM71.090,1.762 L73.698,1.762 L73.698,4.351 L71.090,4.351 L71.090,1.762 ZM71.090,14.713 L71.090,12.123 L73.698,12.123 L73.698,14.713 L71.090,14.713 ZM71.090,6.942 L80.218,6.942 L80.218,9.532 L71.090,9.532 L71.090,6.942 ZM71.320,18.819 C71.977,18.164 72.800,17.698 73.701,17.467 C76.485,16.752 79.325,18.414 80.045,21.180 C80.764,23.945 79.090,26.767 76.306,27.481 L76.306,51.161 C77.211,51.393 78.036,51.862 78.696,52.519 C80.727,54.542 80.722,57.817 78.685,59.835 C76.648,61.852 73.350,61.847 71.319,59.824 L51.304,71.572 C51.605,72.554 51.605,73.603 51.304,74.586 C50.466,77.323 47.553,78.867 44.797,78.035 C42.040,77.203 40.486,74.308 41.323,71.572 L21.308,59.824 C20.651,60.478 19.829,60.945 18.928,61.176 C16.143,61.891 13.303,60.229 12.583,57.463 C11.864,54.698 13.538,51.876 16.322,51.161 L16.322,27.481 C15.418,27.249 14.592,26.781 13.933,26.124 C11.902,24.101 11.906,20.825 13.943,18.808 C15.980,16.791 19.278,16.796 21.309,18.819 L41.324,7.071 C41.181,6.610 41.105,6.129 41.098,5.647 C41.098,2.786 43.433,0.466 46.314,0.466 C49.195,0.466 51.530,2.786 51.530,5.647 C51.523,6.129 51.447,6.610 51.304,7.071 L71.320,18.819 ZM77.610,22.484 C77.610,21.054 76.442,19.894 75.002,19.894 C73.562,19.894 72.394,21.054 72.394,22.484 C72.394,23.915 73.562,25.075 75.002,25.075 C76.442,25.075 77.610,23.915 77.610,22.484 ZM75.002,58.749 C76.442,58.749 77.610,57.589 77.610,56.159 C77.610,54.728 76.442,53.569 75.002,53.569 C73.562,53.569 72.394,54.728 72.394,56.159 C72.394,57.589 73.562,58.749 75.002,58.749 ZM70.012,57.583 C69.869,57.121 69.794,56.642 69.786,56.159 C69.795,53.804 71.402,51.751 73.698,51.161 L73.698,27.481 C72.800,27.255 71.979,26.796 71.320,26.149 L47.618,40.061 L47.618,67.999 C48.516,68.225 49.337,68.684 49.996,69.331 L70.012,57.583 ZM46.314,75.587 C47.754,75.587 48.922,74.427 48.922,72.996 C48.922,71.565 47.755,70.406 46.314,70.406 C44.874,70.406 43.706,71.565 43.706,72.996 C43.706,74.427 44.874,75.587 46.314,75.587 ZM15.018,56.159 C15.018,57.589 16.186,58.749 17.626,58.749 C19.066,58.749 20.234,57.589 20.234,56.159 C20.234,54.728 19.067,53.569 17.626,53.569 C16.186,53.569 15.018,54.728 15.018,56.159 ZM17.626,19.894 C16.186,19.894 15.018,21.054 15.018,22.484 C15.018,23.915 16.186,25.075 17.626,25.075 C19.067,25.075 20.234,23.915 20.234,22.484 C20.234,21.054 19.067,19.894 17.626,19.894 ZM21.307,26.149 C20.649,26.796 19.828,27.256 18.930,27.481 L18.930,51.161 C19.035,51.187 19.139,51.215 19.241,51.247 C21.935,52.070 23.446,54.908 22.617,57.583 L42.632,69.331 C43.291,68.684 44.112,68.225 45.010,67.999 L45.010,40.061 L21.307,26.149 ZM46.314,3.056 C44.874,3.056 43.706,4.216 43.706,5.647 C43.706,7.078 44.874,8.238 46.314,8.238 C47.755,8.238 48.922,7.078 48.922,5.647 C48.922,4.216 47.755,3.056 46.314,3.056 ZM49.996,9.312 C49.996,9.312 49.996,9.313 49.995,9.313 C47.961,11.333 44.665,11.332 42.632,9.312 L22.617,21.060 C22.917,21.986 22.917,22.982 22.617,23.909 L46.314,37.816 L70.012,23.909 C69.711,22.982 69.711,21.986 70.012,21.060 L49.996,9.312 ZM45.010,32.846 L47.618,32.846 L47.618,35.436 L45.010,35.436 L45.010,32.846 ZM45.010,27.665 L47.618,27.665 L47.618,30.256 L45.010,30.256 L45.010,27.665 ZM45.010,22.484 L47.618,22.484 L47.618,25.075 L45.010,25.075 L45.010,22.484 ZM45.010,17.303 L47.618,17.303 L47.618,19.894 L45.010,19.894 L45.010,17.303 ZM45.010,12.123 L47.618,12.123 L47.618,14.713 L45.010,14.713 L45.010,12.123 ZM40.332,41.330 L42.431,40.098 L43.758,42.328 L41.659,43.560 L40.332,41.330 ZM36.134,43.793 L38.232,42.562 L39.559,44.792 L37.461,46.024 L36.134,43.793 ZM31.940,46.256 L34.038,45.026 L35.365,47.255 L33.266,48.487 L31.940,46.256 ZM27.746,48.716 L29.844,47.485 L31.171,49.715 L29.073,50.946 L27.746,48.716 ZM23.544,51.183 L25.642,49.951 L26.969,52.181 L24.871,53.413 L23.544,51.183 ZM52.291,41.333 L50.964,43.563 L48.866,42.332 L50.193,40.101 L52.291,41.333 ZM56.493,43.790 L55.166,46.021 L53.068,44.789 L54.394,42.559 L56.493,43.790 ZM60.686,46.255 L59.359,48.485 L57.261,47.254 L58.588,45.024 L60.686,46.255 ZM64.887,48.714 L63.561,50.944 L61.462,49.713 L62.789,47.483 L64.887,48.714 ZM69.081,51.176 L67.755,53.406 L65.656,52.174 L66.983,49.944 L69.081,51.176 ZM12.410,12.123 L21.538,12.123 L21.538,14.713 L12.410,14.713 L12.410,12.123 ZM18.930,6.942 L21.538,6.942 L21.538,9.532 L18.930,9.532 L18.930,6.942 ZM12.410,1.762 L21.538,1.762 L21.538,4.351 L12.410,4.351 L12.410,1.762 ZM7.194,1.762 L9.802,1.762 L9.802,4.351 L7.194,4.351 L7.194,1.762 ZM16.322,9.532 L7.194,9.532 L7.194,6.942 L16.322,6.942 L16.322,9.532 ZM9.802,14.713 L7.194,14.713 L7.194,12.123 L9.802,12.123 L9.802,14.713 ZM9.802,67.816 L7.194,67.816 L7.194,65.225 L9.802,65.225 L9.802,67.816 ZM16.322,72.996 L7.194,72.996 L7.194,70.406 L16.322,70.406 L16.322,72.996 ZM9.802,78.177 L7.194,78.177 L7.194,75.587 L9.802,75.587 L9.802,78.177 ZM12.410,65.225 L21.538,65.225 L21.538,67.816 L12.410,67.816 L12.410,65.225 ZM21.538,72.996 L18.930,72.996 L18.930,70.406 L21.538,70.406 L21.538,72.996 ZM21.538,78.177 L12.410,78.177 L12.410,75.587 L21.538,75.587 L21.538,78.177 ZM73.698,67.816 L71.090,67.816 L71.090,65.225 L73.698,65.225 L73.698,67.816 ZM80.218,72.996 L71.090,72.996 L71.090,70.406 L80.218,70.406 L80.218,72.996 ZM73.698,78.177 L71.090,78.177 L71.090,75.587 L73.698,75.587 L73.698,78.177 Z"/>
</g>
<path fill="url(#PSgrad_0)"
  d="M76.306,78.177 L76.306,75.587 L85.434,75.587 L85.434,78.177 L76.306,78.177 ZM82.826,70.406 L85.434,70.406 L85.434,72.996 L82.826,72.996 L82.826,70.406 ZM76.306,65.225 L85.434,65.225 L85.434,67.816 L76.306,67.816 L76.306,65.225 ZM76.306,12.123 L85.434,12.123 L85.434,14.713 L76.306,14.713 L76.306,12.123 ZM82.826,6.942 L85.434,6.942 L85.434,9.532 L82.826,9.532 L82.826,6.942 ZM76.306,1.762 L85.434,1.762 L85.434,4.351 L76.306,4.351 L76.306,1.762 ZM71.090,1.762 L73.698,1.762 L73.698,4.351 L71.090,4.351 L71.090,1.762 ZM71.090,14.713 L71.090,12.123 L73.698,12.123 L73.698,14.713 L71.090,14.713 ZM71.090,6.942 L80.218,6.942 L80.218,9.532 L71.090,9.532 L71.090,6.942 ZM71.320,18.819 C71.977,18.164 72.800,17.698 73.701,17.467 C76.485,16.752 79.325,18.414 80.045,21.180 C80.764,23.945 79.090,26.767 76.306,27.481 L76.306,51.161 C77.211,51.393 78.036,51.862 78.696,52.519 C80.727,54.542 80.722,57.817 78.685,59.835 C76.648,61.852 73.350,61.847 71.319,59.824 L51.304,71.572 C51.605,72.554 51.605,73.603 51.304,74.586 C50.466,77.323 47.553,78.867 44.797,78.035 C42.040,77.203 40.486,74.308 41.323,71.572 L21.308,59.824 C20.651,60.478 19.829,60.945 18.928,61.176 C16.143,61.891 13.303,60.229 12.583,57.463 C11.864,54.698 13.538,51.876 16.322,51.161 L16.322,27.481 C15.418,27.249 14.592,26.781 13.933,26.124 C11.902,24.101 11.906,20.825 13.943,18.808 C15.980,16.791 19.278,16.796 21.309,18.819 L41.324,7.071 C41.181,6.610 41.105,6.129 41.098,5.647 C41.098,2.786 43.433,0.466 46.314,0.466 C49.195,0.466 51.530,2.786 51.530,5.647 C51.523,6.129 51.447,6.610 51.304,7.071 L71.320,18.819 ZM77.610,22.484 C77.610,21.054 76.442,19.894 75.002,19.894 C73.562,19.894 72.394,21.054 72.394,22.484 C72.394,23.915 73.562,25.075 75.002,25.075 C76.442,25.075 77.610,23.915 77.610,22.484 ZM75.002,58.749 C76.442,58.749 77.610,57.589 77.610,56.159 C77.610,54.728 76.442,53.569 75.002,53.569 C73.562,53.569 72.394,54.728 72.394,56.159 C72.394,57.589 73.562,58.749 75.002,58.749 ZM70.012,57.583 C69.869,57.121 69.794,56.642 69.786,56.159 C69.795,53.804 71.402,51.751 73.698,51.161 L73.698,27.481 C72.800,27.255 71.979,26.796 71.320,26.149 L47.618,40.061 L47.618,67.999 C48.516,68.225 49.337,68.684 49.996,69.331 L70.012,57.583 ZM46.314,75.587 C47.754,75.587 48.922,74.427 48.922,72.996 C48.922,71.565 47.755,70.406 46.314,70.406 C44.874,70.406 43.706,71.565 43.706,72.996 C43.706,74.427 44.874,75.587 46.314,75.587 ZM15.018,56.159 C15.018,57.589 16.186,58.749 17.626,58.749 C19.066,58.749 20.234,57.589 20.234,56.159 C20.234,54.728 19.067,53.569 17.626,53.569 C16.186,53.569 15.018,54.728 15.018,56.159 ZM17.626,19.894 C16.186,19.894 15.018,21.054 15.018,22.484 C15.018,23.915 16.186,25.075 17.626,25.075 C19.067,25.075 20.234,23.915 20.234,22.484 C20.234,21.054 19.067,19.894 17.626,19.894 ZM21.307,26.149 C20.649,26.796 19.828,27.256 18.930,27.481 L18.930,51.161 C19.035,51.187 19.139,51.215 19.241,51.247 C21.935,52.070 23.446,54.908 22.617,57.583 L42.632,69.331 C43.291,68.684 44.112,68.225 45.010,67.999 L45.010,40.061 L21.307,26.149 ZM46.314,3.056 C44.874,3.056 43.706,4.216 43.706,5.647 C43.706,7.078 44.874,8.238 46.314,8.238 C47.755,8.238 48.922,7.078 48.922,5.647 C48.922,4.216 47.755,3.056 46.314,3.056 ZM49.996,9.312 C49.996,9.312 49.996,9.313 49.995,9.313 C47.961,11.333 44.665,11.332 42.632,9.312 L22.617,21.060 C22.917,21.986 22.917,22.982 22.617,23.909 L46.314,37.816 L70.012,23.909 C69.711,22.982 69.711,21.986 70.012,21.060 L49.996,9.312 ZM45.010,32.846 L47.618,32.846 L47.618,35.436 L45.010,35.436 L45.010,32.846 ZM45.010,27.665 L47.618,27.665 L47.618,30.256 L45.010,30.256 L45.010,27.665 ZM45.010,22.484 L47.618,22.484 L47.618,25.075 L45.010,25.075 L45.010,22.484 ZM45.010,17.303 L47.618,17.303 L47.618,19.894 L45.010,19.894 L45.010,17.303 ZM45.010,12.123 L47.618,12.123 L47.618,14.713 L45.010,14.713 L45.010,12.123 ZM40.332,41.330 L42.431,40.098 L43.758,42.328 L41.659,43.560 L40.332,41.330 ZM36.134,43.793 L38.232,42.562 L39.559,44.792 L37.461,46.024 L36.134,43.793 ZM31.940,46.256 L34.038,45.026 L35.365,47.255 L33.266,48.487 L31.940,46.256 ZM27.746,48.716 L29.844,47.485 L31.171,49.715 L29.073,50.946 L27.746,48.716 ZM23.544,51.183 L25.642,49.951 L26.969,52.181 L24.871,53.413 L23.544,51.183 ZM52.291,41.333 L50.964,43.563 L48.866,42.332 L50.193,40.101 L52.291,41.333 ZM56.493,43.790 L55.166,46.021 L53.068,44.789 L54.394,42.559 L56.493,43.790 ZM60.686,46.255 L59.359,48.485 L57.261,47.254 L58.588,45.024 L60.686,46.255 ZM64.887,48.714 L63.561,50.944 L61.462,49.713 L62.789,47.483 L64.887,48.714 ZM69.081,51.176 L67.755,53.406 L65.656,52.174 L66.983,49.944 L69.081,51.176 ZM12.410,12.123 L21.538,12.123 L21.538,14.713 L12.410,14.713 L12.410,12.123 ZM18.930,6.942 L21.538,6.942 L21.538,9.532 L18.930,9.532 L18.930,6.942 ZM12.410,1.762 L21.538,1.762 L21.538,4.351 L12.410,4.351 L12.410,1.762 ZM7.194,1.762 L9.802,1.762 L9.802,4.351 L7.194,4.351 L7.194,1.762 ZM16.322,9.532 L7.194,9.532 L7.194,6.942 L16.322,6.942 L16.322,9.532 ZM9.802,14.713 L7.194,14.713 L7.194,12.123 L9.802,12.123 L9.802,14.713 ZM9.802,67.816 L7.194,67.816 L7.194,65.225 L9.802,65.225 L9.802,67.816 ZM16.322,72.996 L7.194,72.996 L7.194,70.406 L16.322,70.406 L16.322,72.996 ZM9.802,78.177 L7.194,78.177 L7.194,75.587 L9.802,75.587 L9.802,78.177 ZM12.410,65.225 L21.538,65.225 L21.538,67.816 L12.410,67.816 L12.410,65.225 ZM21.538,72.996 L18.930,72.996 L18.930,70.406 L21.538,70.406 L21.538,72.996 ZM21.538,78.177 L12.410,78.177 L12.410,75.587 L21.538,75.587 L21.538,78.177 ZM73.698,67.816 L71.090,67.816 L71.090,65.225 L73.698,65.225 L73.698,67.816 ZM80.218,72.996 L71.090,72.996 L71.090,70.406 L80.218,70.406 L80.218,72.996 ZM73.698,78.177 L71.090,78.177 L71.090,75.587 L73.698,75.587 L73.698,78.177 Z"/>
</svg>