<svg
xmlns="http://www.w3.org/2000/svg"
xmlns:xlink="http://www.w3.org/1999/xlink"
width="100px" height="100px">
<defs>
<filter filterUnits="userSpaceOnUse" id="Filter_0" x="0px" y="0px" width="100px" height="100px"  >
	<feOffset in="SourceAlpha" dx="0" dy="8" />
	<feGaussianBlur result="blurOut" stdDeviation="2.828" />
	<feFlood flood-color="rgb(11, 92, 233)" result="floodOut" />
	<feComposite operator="atop" in="floodOut" in2="blurOut" />
	<feComponentTransfer><feFuncA type="linear" slope="0.4"/></feComponentTransfer>
	<feMerge>
		<feMergeNode/>
		<feMergeNode in="SourceGraphic"/>
	</feMerge>
</filter>
<linearGradient id="PSgrad_0" x1="0%" x2="65.606%" y1="0%" y2="75.471%">
	<stop offset="0%" stop-color="rgb(11,92,233)" stop-opacity="1" />
	<stop offset="100%" stop-color="rgb(115,32,249)" stop-opacity="1" />
</linearGradient>

</defs>
<g filter="url(#Filter_0)">
<path fill-rule="evenodd"  fill="rgb(0, 167, 157)"
	  d="M90.672,48.631 C89.936,48.631 89.339,48.038 89.339,47.306 L89.339,8.415 C89.339,8.171 89.140,7.974 88.895,7.974 L53.337,7.974 C52.600,7.974 52.004,7.380 52.004,6.648 C52.004,5.915 52.600,5.321 53.337,5.321 L55.559,5.321 L55.559,4.880 C55.559,3.662 54.562,2.670 53.337,2.670 L46.225,2.670 C45.000,2.670 44.003,3.662 44.003,4.880 L44.003,5.321 L48.003,5.321 C48.740,5.321 49.337,5.915 49.337,6.648 C49.337,7.380 48.740,7.974 48.003,7.974 L10.668,7.974 C10.422,7.974 10.223,8.172 10.223,8.415 L10.223,17.255 C10.223,17.986 9.626,18.580 8.890,18.580 C8.153,18.580 7.556,17.986 7.556,17.255 L7.556,8.415 C7.556,6.710 8.952,5.321 10.668,5.321 L41.336,5.321 L41.336,4.880 C41.336,2.200 43.530,0.019 46.225,0.019 L53.337,0.019 C56.033,0.019 58.226,2.200 58.226,4.880 L58.226,5.321 L88.895,5.321 C90.610,5.321 92.006,6.710 92.006,8.415 L92.006,47.306 C92.006,48.038 91.409,48.631 90.672,48.631 ZM48.809,31.096 C50.145,31.362 51.115,32.538 51.115,33.894 L51.115,35.970 C51.115,37.325 50.145,38.502 48.809,38.766 L45.754,39.374 C45.580,39.873 45.377,40.360 45.146,40.833 L46.874,43.411 C47.630,44.538 47.480,46.051 46.516,47.010 L45.039,48.478 C44.075,49.436 42.553,49.586 41.419,48.835 L38.827,47.116 C38.351,47.346 37.860,47.548 37.360,47.720 L36.749,50.758 C36.482,52.087 35.299,53.051 33.936,53.051 L31.847,53.051 C30.484,53.051 29.301,52.087 29.034,50.757 L28.423,47.720 C27.922,47.548 27.432,47.346 26.956,47.116 L24.364,48.835 C23.230,49.586 21.708,49.436 20.744,48.478 L19.267,47.010 C18.303,46.051 18.152,44.538 18.908,43.411 L20.636,40.833 C20.406,40.360 20.202,39.872 20.029,39.374 L16.974,38.766 C15.638,38.501 14.668,37.325 14.668,35.969 L14.668,33.893 C14.668,32.538 15.638,31.362 16.974,31.096 L20.029,30.488 C20.203,29.991 20.406,29.503 20.636,29.030 L18.908,26.453 C18.153,25.325 18.303,23.811 19.267,22.853 L20.744,21.385 C21.708,20.427 23.230,20.277 24.364,21.028 L26.956,22.747 C27.432,22.517 27.922,22.315 28.423,22.142 L29.034,19.105 C29.301,17.777 30.484,16.812 31.847,16.812 L33.936,16.812 C35.299,16.812 36.482,17.777 36.749,19.105 L37.360,22.142 C37.861,22.315 38.351,22.517 38.827,22.747 L41.419,21.028 C42.553,20.276 44.075,20.427 45.039,21.385 L46.516,22.853 C47.480,23.811 47.631,25.325 46.875,26.453 L45.146,29.030 C45.378,29.503 45.580,29.991 45.754,30.488 L48.809,31.096 ZM44.457,32.935 C43.965,32.836 43.570,32.473 43.434,31.992 C43.199,31.157 42.864,30.352 42.437,29.599 C42.190,29.163 42.211,28.628 42.489,28.212 L44.656,24.982 C44.709,24.902 44.698,24.796 44.630,24.728 L43.153,23.259 C43.085,23.192 42.978,23.181 42.898,23.234 L39.649,25.388 C39.232,25.665 38.692,25.685 38.255,25.440 C37.497,25.016 36.688,24.683 35.848,24.448 C35.365,24.314 34.998,23.921 34.900,23.432 L34.134,19.625 C34.115,19.532 34.032,19.463 33.936,19.463 L31.847,19.463 C31.751,19.463 31.668,19.532 31.649,19.625 L30.883,23.432 C30.784,23.921 30.418,24.314 29.935,24.448 C29.095,24.683 28.286,25.016 27.528,25.440 C27.090,25.685 26.551,25.665 26.134,25.388 L22.885,23.234 C22.805,23.181 22.698,23.192 22.630,23.259 L21.153,24.728 C21.085,24.796 21.074,24.903 21.127,24.982 L23.293,28.212 C23.572,28.628 23.592,29.163 23.346,29.599 C22.919,30.352 22.583,31.157 22.348,31.992 C22.213,32.473 21.818,32.836 21.326,32.935 L17.497,33.696 C17.403,33.714 17.335,33.798 17.335,33.893 L17.335,35.969 C17.335,36.065 17.403,36.148 17.497,36.167 L21.326,36.929 C21.818,37.026 22.213,37.390 22.348,37.870 C22.583,38.706 22.919,39.511 23.346,40.264 C23.592,40.699 23.572,41.235 23.293,41.650 L21.127,44.881 C21.074,44.961 21.085,45.067 21.153,45.134 L22.630,46.603 C22.698,46.671 22.805,46.681 22.885,46.628 L26.134,44.475 C26.357,44.326 26.615,44.252 26.873,44.252 C27.098,44.252 27.324,44.309 27.528,44.423 C28.286,44.846 29.095,45.181 29.935,45.415 C30.418,45.549 30.784,45.942 30.883,46.431 L31.649,50.238 C31.668,50.331 31.751,50.398 31.847,50.398 L33.936,50.398 C34.032,50.398 34.115,50.331 34.134,50.238 L34.900,46.431 C34.998,45.942 35.364,45.549 35.848,45.415 C36.688,45.181 37.497,44.846 38.255,44.423 C38.692,44.177 39.231,44.197 39.649,44.475 L42.898,46.628 C42.978,46.681 43.085,46.671 43.153,46.603 L44.630,45.134 C44.698,45.067 44.709,44.961 44.656,44.881 L42.489,41.650 C42.211,41.235 42.190,40.699 42.437,40.264 C42.864,39.511 43.199,38.706 43.434,37.870 C43.570,37.390 43.965,37.026 44.457,36.929 L48.285,36.167 C48.380,36.148 48.448,36.065 48.448,35.969 L48.448,33.893 C48.448,33.798 48.380,33.714 48.286,33.696 L44.457,32.935 ZM32.891,41.295 C29.362,41.295 26.491,38.440 26.491,34.931 C26.491,31.422 29.362,28.567 32.891,28.567 C36.420,28.567 39.292,31.422 39.292,34.931 C39.292,38.440 36.420,41.295 32.891,41.295 ZM32.891,31.219 C30.833,31.219 29.158,32.885 29.158,34.931 C29.158,36.979 30.833,38.644 32.891,38.644 C34.950,38.644 36.625,36.979 36.625,34.931 C36.625,32.885 34.950,31.219 32.891,31.219 ZM81.783,45.096 L76.449,45.096 C75.713,45.096 75.116,44.503 75.116,43.770 C75.116,43.038 75.713,42.444 76.449,42.444 L81.783,42.444 C83.498,42.444 84.894,43.832 84.894,45.537 L84.894,49.073 C84.894,50.779 83.499,52.167 81.783,52.167 L60.004,52.167 L60.004,56.144 C60.004,56.877 59.407,57.470 58.671,57.470 C57.934,57.470 57.337,56.877 57.337,56.144 L57.337,13.719 C57.337,12.986 57.934,12.393 58.671,12.393 C59.407,12.393 60.004,12.986 60.004,13.719 L60.004,17.696 L65.782,17.696 C67.498,17.696 68.894,19.085 68.894,20.790 L68.894,24.325 C68.894,26.030 67.498,27.419 65.782,27.419 L60.004,27.419 L60.004,30.071 L64.004,30.071 C64.741,30.071 65.338,30.664 65.338,31.396 C65.338,32.129 64.741,32.723 64.004,32.723 L60.004,32.723 L60.004,37.141 L72.894,37.141 C73.139,37.141 73.338,36.943 73.338,36.699 L73.338,33.164 C73.338,32.920 73.139,32.722 72.894,32.722 L69.338,32.722 C68.601,32.722 68.004,32.129 68.004,31.395 C68.004,30.664 68.601,30.070 69.338,30.070 L72.894,30.070 C74.609,30.070 76.005,31.458 76.005,33.164 L76.005,36.699 C76.005,38.405 74.609,39.793 72.894,39.793 L60.004,39.793 L60.004,42.444 L71.116,42.444 C71.852,42.444 72.449,43.038 72.449,43.770 C72.449,44.503 71.852,45.096 71.116,45.096 L60.004,45.096 L60.004,49.515 L81.783,49.515 C82.028,49.515 82.228,49.317 82.228,49.073 L82.228,45.537 C82.228,45.294 82.028,45.096 81.783,45.096 ZM65.782,24.767 C66.027,24.767 66.227,24.569 66.227,24.324 L66.227,20.790 C66.227,20.546 66.027,20.348 65.782,20.348 L60.004,20.348 L60.004,24.767 L65.782,24.767 ZM8.890,21.231 C9.626,21.231 10.223,21.825 10.223,22.557 L10.223,61.447 C10.223,61.691 10.423,61.890 10.668,61.890 L88.895,61.890 C89.140,61.890 89.339,61.691 89.339,61.447 L89.339,52.609 C89.339,51.876 89.936,51.283 90.672,51.283 C91.409,51.283 92.006,51.877 92.006,52.609 L92.006,61.448 C92.006,63.154 90.610,64.541 88.894,64.541 L68.893,64.541 L68.893,81.335 L74.671,81.335 C75.408,81.335 76.005,81.928 76.005,82.661 C76.005,83.393 75.408,83.986 74.671,83.986 L24.891,83.986 C24.154,83.986 23.557,83.393 23.557,82.661 C23.557,81.928 24.154,81.335 24.891,81.335 L30.669,81.335 L30.669,64.541 L10.668,64.541 C8.952,64.541 7.556,63.154 7.556,61.448 L7.556,22.557 C7.556,21.825 8.153,21.231 8.890,21.231 ZM33.336,81.334 L66.227,81.334 L66.227,71.612 L37.336,71.612 C36.599,71.612 36.003,71.018 36.003,70.286 C36.003,69.554 36.599,68.960 37.336,68.960 L66.227,68.960 L66.227,68.960 L66.227,64.541 L33.336,64.541 L33.336,81.334 Z"/>
</g>
<path fill="url(#PSgrad_0)"
  d="M90.672,48.631 C89.936,48.631 89.339,48.038 89.339,47.306 L89.339,8.415 C89.339,8.171 89.140,7.974 88.895,7.974 L53.337,7.974 C52.600,7.974 52.004,7.380 52.004,6.648 C52.004,5.915 52.600,5.321 53.337,5.321 L55.559,5.321 L55.559,4.880 C55.559,3.662 54.562,2.670 53.337,2.670 L46.225,2.670 C45.000,2.670 44.003,3.662 44.003,4.880 L44.003,5.321 L48.003,5.321 C48.740,5.321 49.337,5.915 49.337,6.648 C49.337,7.380 48.740,7.974 48.003,7.974 L10.668,7.974 C10.422,7.974 10.223,8.172 10.223,8.415 L10.223,17.255 C10.223,17.986 9.626,18.580 8.890,18.580 C8.153,18.580 7.556,17.986 7.556,17.255 L7.556,8.415 C7.556,6.710 8.952,5.321 10.668,5.321 L41.336,5.321 L41.336,4.880 C41.336,2.200 43.530,0.019 46.225,0.019 L53.337,0.019 C56.033,0.019 58.226,2.200 58.226,4.880 L58.226,5.321 L88.895,5.321 C90.610,5.321 92.006,6.710 92.006,8.415 L92.006,47.306 C92.006,48.038 91.409,48.631 90.672,48.631 ZM48.809,31.096 C50.145,31.362 51.115,32.538 51.115,33.894 L51.115,35.970 C51.115,37.325 50.145,38.502 48.809,38.766 L45.754,39.374 C45.580,39.873 45.377,40.360 45.146,40.833 L46.874,43.411 C47.630,44.538 47.480,46.051 46.516,47.010 L45.039,48.478 C44.075,49.436 42.553,49.586 41.419,48.835 L38.827,47.116 C38.351,47.346 37.860,47.548 37.360,47.720 L36.749,50.758 C36.482,52.087 35.299,53.051 33.936,53.051 L31.847,53.051 C30.484,53.051 29.301,52.087 29.034,50.757 L28.423,47.720 C27.922,47.548 27.432,47.346 26.956,47.116 L24.364,48.835 C23.230,49.586 21.708,49.436 20.744,48.478 L19.267,47.010 C18.303,46.051 18.152,44.538 18.908,43.411 L20.636,40.833 C20.406,40.360 20.202,39.872 20.029,39.374 L16.974,38.766 C15.638,38.501 14.668,37.325 14.668,35.969 L14.668,33.893 C14.668,32.538 15.638,31.362 16.974,31.096 L20.029,30.488 C20.203,29.991 20.406,29.503 20.636,29.030 L18.908,26.453 C18.153,25.325 18.303,23.811 19.267,22.853 L20.744,21.385 C21.708,20.427 23.230,20.277 24.364,21.028 L26.956,22.747 C27.432,22.517 27.922,22.315 28.423,22.142 L29.034,19.105 C29.301,17.777 30.484,16.812 31.847,16.812 L33.936,16.812 C35.299,16.812 36.482,17.777 36.749,19.105 L37.360,22.142 C37.861,22.315 38.351,22.517 38.827,22.747 L41.419,21.028 C42.553,20.276 44.075,20.427 45.039,21.385 L46.516,22.853 C47.480,23.811 47.631,25.325 46.875,26.453 L45.146,29.030 C45.378,29.503 45.580,29.991 45.754,30.488 L48.809,31.096 ZM44.457,32.935 C43.965,32.836 43.570,32.473 43.434,31.992 C43.199,31.157 42.864,30.352 42.437,29.599 C42.190,29.163 42.211,28.628 42.489,28.212 L44.656,24.982 C44.709,24.902 44.698,24.796 44.630,24.728 L43.153,23.259 C43.085,23.192 42.978,23.181 42.898,23.234 L39.649,25.388 C39.232,25.665 38.692,25.685 38.255,25.440 C37.497,25.016 36.688,24.683 35.848,24.448 C35.365,24.314 34.998,23.921 34.900,23.432 L34.134,19.625 C34.115,19.532 34.032,19.463 33.936,19.463 L31.847,19.463 C31.751,19.463 31.668,19.532 31.649,19.625 L30.883,23.432 C30.784,23.921 30.418,24.314 29.935,24.448 C29.095,24.683 28.286,25.016 27.528,25.440 C27.090,25.685 26.551,25.665 26.134,25.388 L22.885,23.234 C22.805,23.181 22.698,23.192 22.630,23.259 L21.153,24.728 C21.085,24.796 21.074,24.903 21.127,24.982 L23.293,28.212 C23.572,28.628 23.592,29.163 23.346,29.599 C22.919,30.352 22.583,31.157 22.348,31.992 C22.213,32.473 21.818,32.836 21.326,32.935 L17.497,33.696 C17.403,33.714 17.335,33.798 17.335,33.893 L17.335,35.969 C17.335,36.065 17.403,36.148 17.497,36.167 L21.326,36.929 C21.818,37.026 22.213,37.390 22.348,37.870 C22.583,38.706 22.919,39.511 23.346,40.264 C23.592,40.699 23.572,41.235 23.293,41.650 L21.127,44.881 C21.074,44.961 21.085,45.067 21.153,45.134 L22.630,46.603 C22.698,46.671 22.805,46.681 22.885,46.628 L26.134,44.475 C26.357,44.326 26.615,44.252 26.873,44.252 C27.098,44.252 27.324,44.309 27.528,44.423 C28.286,44.846 29.095,45.181 29.935,45.415 C30.418,45.549 30.784,45.942 30.883,46.431 L31.649,50.238 C31.668,50.331 31.751,50.398 31.847,50.398 L33.936,50.398 C34.032,50.398 34.115,50.331 34.134,50.238 L34.900,46.431 C34.998,45.942 35.364,45.549 35.848,45.415 C36.688,45.181 37.497,44.846 38.255,44.423 C38.692,44.177 39.231,44.197 39.649,44.475 L42.898,46.628 C42.978,46.681 43.085,46.671 43.153,46.603 L44.630,45.134 C44.698,45.067 44.709,44.961 44.656,44.881 L42.489,41.650 C42.211,41.235 42.190,40.699 42.437,40.264 C42.864,39.511 43.199,38.706 43.434,37.870 C43.570,37.390 43.965,37.026 44.457,36.929 L48.285,36.167 C48.380,36.148 48.448,36.065 48.448,35.969 L48.448,33.893 C48.448,33.798 48.380,33.714 48.286,33.696 L44.457,32.935 ZM32.891,41.295 C29.362,41.295 26.491,38.440 26.491,34.931 C26.491,31.422 29.362,28.567 32.891,28.567 C36.420,28.567 39.292,31.422 39.292,34.931 C39.292,38.440 36.420,41.295 32.891,41.295 ZM32.891,31.219 C30.833,31.219 29.158,32.885 29.158,34.931 C29.158,36.979 30.833,38.644 32.891,38.644 C34.950,38.644 36.625,36.979 36.625,34.931 C36.625,32.885 34.950,31.219 32.891,31.219 ZM81.783,45.096 L76.449,45.096 C75.713,45.096 75.116,44.503 75.116,43.770 C75.116,43.038 75.713,42.444 76.449,42.444 L81.783,42.444 C83.498,42.444 84.894,43.832 84.894,45.537 L84.894,49.073 C84.894,50.779 83.499,52.167 81.783,52.167 L60.004,52.167 L60.004,56.144 C60.004,56.877 59.407,57.470 58.671,57.470 C57.934,57.470 57.337,56.877 57.337,56.144 L57.337,13.719 C57.337,12.986 57.934,12.393 58.671,12.393 C59.407,12.393 60.004,12.986 60.004,13.719 L60.004,17.696 L65.782,17.696 C67.498,17.696 68.894,19.085 68.894,20.790 L68.894,24.325 C68.894,26.030 67.498,27.419 65.782,27.419 L60.004,27.419 L60.004,30.071 L64.004,30.071 C64.741,30.071 65.338,30.664 65.338,31.396 C65.338,32.129 64.741,32.723 64.004,32.723 L60.004,32.723 L60.004,37.141 L72.894,37.141 C73.139,37.141 73.338,36.943 73.338,36.699 L73.338,33.164 C73.338,32.920 73.139,32.722 72.894,32.722 L69.338,32.722 C68.601,32.722 68.004,32.129 68.004,31.395 C68.004,30.664 68.601,30.070 69.338,30.070 L72.894,30.070 C74.609,30.070 76.005,31.458 76.005,33.164 L76.005,36.699 C76.005,38.405 74.609,39.793 72.894,39.793 L60.004,39.793 L60.004,42.444 L71.116,42.444 C71.852,42.444 72.449,43.038 72.449,43.770 C72.449,44.503 71.852,45.096 71.116,45.096 L60.004,45.096 L60.004,49.515 L81.783,49.515 C82.028,49.515 82.228,49.317 82.228,49.073 L82.228,45.537 C82.228,45.294 82.028,45.096 81.783,45.096 ZM65.782,24.767 C66.027,24.767 66.227,24.569 66.227,24.324 L66.227,20.790 C66.227,20.546 66.027,20.348 65.782,20.348 L60.004,20.348 L60.004,24.767 L65.782,24.767 ZM8.890,21.231 C9.626,21.231 10.223,21.825 10.223,22.557 L10.223,61.447 C10.223,61.691 10.423,61.890 10.668,61.890 L88.895,61.890 C89.140,61.890 89.339,61.691 89.339,61.447 L89.339,52.609 C89.339,51.876 89.936,51.283 90.672,51.283 C91.409,51.283 92.006,51.877 92.006,52.609 L92.006,61.448 C92.006,63.154 90.610,64.541 88.894,64.541 L68.893,64.541 L68.893,81.335 L74.671,81.335 C75.408,81.335 76.005,81.928 76.005,82.661 C76.005,83.393 75.408,83.986 74.671,83.986 L24.891,83.986 C24.154,83.986 23.557,83.393 23.557,82.661 C23.557,81.928 24.154,81.335 24.891,81.335 L30.669,81.335 L30.669,64.541 L10.668,64.541 C8.952,64.541 7.556,63.154 7.556,61.448 L7.556,22.557 C7.556,21.825 8.153,21.231 8.890,21.231 ZM33.336,81.334 L66.227,81.334 L66.227,71.612 L37.336,71.612 C36.599,71.612 36.003,71.018 36.003,70.286 C36.003,69.554 36.599,68.960 37.336,68.960 L66.227,68.960 L66.227,68.960 L66.227,64.541 L33.336,64.541 L33.336,81.334 Z"/>
</svg>