<svg xmlns="http://www.w3.org/2000/svg" viewBox="0 0 178.16 122.76"><defs><style>.cls-1,.cls-8{fill:#cee5ed;}.cls-1{opacity:0.43;}.cls-2{fill:#aac6ce;}.cls-3{fill:#85b0ba;}.cls-4{fill:#5aeaff;}.cls-5{fill:#f2bf75;}.cls-16,.cls-6{fill:#1e394c;}.cls-7{fill:#0f2a3f;}.cls-11,.cls-9{fill:#ea9249;}.cls-10{fill:#80a9b2;}.cls-11{opacity:0.67;}.cls-12{fill:#67b8ef;}.cls-13,.cls-14,.cls-15{fill:#34648c;}.cls-13{opacity:0.25;}.cls-14{opacity:0.29;}.cls-16{opacity:0.48;}.cls-17{fill:#3e8ccc;}.cls-18{fill:#2173aa;}.cls-19{fill:#1a3651;}.cls-20{fill:#fff;}</style></defs><g id="Слой_2" data-name="Слой 2"><g id="OBJECTS"><path class="cls-1" d="M178.16,119.25c0-1.94-39.88-3.51-89.08-3.51S0,117.31,0,119.25s39.88,3.51,89.08,3.51S178.16,121.19,178.16,119.25Z"/><rect class="cls-2" x="55.96" y="77" width="4.05" height="38.75"/><rect class="cls-3" x="55.96" y="77" width="4.05" height="5.45"/><path class="cls-2" d="M41.64,115.77h34A2.35,2.35,0,0,1,78,118.12v1.21a0,0,0,0,1,0,0H39.29a0,0,0,0,1,0,0v-1.21A2.35,2.35,0,0,1,41.64,115.77Z"/><path class="cls-2" d="M48.38,77H76.46C66.25,73.37,70.2,38.8,72.09,25.69a4.38,4.38,0,0,0-4.34-5H49a7.65,7.65,0,0,0-7.59,6.61c-1.64,11.91-4.23,36.6.89,46.16A6.85,6.85,0,0,0,48.38,77Z"/><path class="cls-4" d="M144.92,2.08H111.33a3.12,3.12,0,0,0-3.12,3.12V17.34a3.12,3.12,0,0,0,3.12,3.12h2.34v3.66a.59.59,0,0,0,1,.43l4.55-4.09h25.72A3.12,3.12,0,0,0,148,17.34V5.2A3.12,3.12,0,0,0,144.92,2.08Z"/><polygon class="cls-5" points="82.76 110.03 82.36 112.77 84.45 115.44 89.74 112.85 90.31 110.35 83.73 109.35 82.76 110.03"/><path class="cls-6" d="M87,118.85l.54-.67a.26.26,0,0,1,.4,0l.54.64a1.19,1.19,0,0,0,.89.41l12.29-.21a.65.65,0,0,0,0-.93c-1.8-1.82-11.49-5-12-5.23s-3.45,2-7.38-.08a43.42,43.42,0,0,0-.73,5.07,1.4,1.4,0,0,0,1.42,1.48l3.12,0A1.15,1.15,0,0,0,87,118.85Z"/><path class="cls-6" d="M60.21,63.73s-5.1,5.64,4.24,11.76c6.56,4.3,11.72,3,15.83,5.6a3.46,3.46,0,0,1,1.77,2.66l.21,26.36.5.25a9.05,9.05,0,0,0,7.87.09h0l3.73-30.09c.13-2.07-1-3.82-2.28-5.45-7.14-9.09-19.79-12.17-23-12.69C64.93,61.53,60.21,63.73,60.21,63.73Z"/><polygon class="cls-5" points="62.44 110.03 62.01 112.77 64.06 115.46 69.38 112.94 69.99 110.45 63.42 109.36 62.44 110.03"/><path class="cls-6" d="M66.59,118.91l.56-.67a.26.26,0,0,1,.39,0l.54.65a1.14,1.14,0,0,0,.88.41l12.29,0a.66.66,0,0,0,0-.93c-1.77-1.84-11.42-5.11-11.9-5.38s-3.47,2-7.37-.18a41.4,41.4,0,0,0-.8,5,1.39,1.39,0,0,0,1.4,1.5h3.12A1.13,1.13,0,0,0,66.59,118.91Z"/><path class="cls-6" d="M44.7,58.81s-6.18,6.89,2.76,14.67c6.27,5.46,11.9,3.13,15.85,6.46a3.69,3.69,0,0,1,1.47,3L62,109.8l.21.14a8.5,8.5,0,0,0,8.24.57h0l7-28.27c.44-2.16-.49-4.15-1.6-6.06C69.59,65.61,59.86,59.31,56.57,58.29,52.29,57,44.7,58.81,44.7,58.81Z"/><path class="cls-7" d="M78.81,80.33a12.26,12.26,0,0,0-1.44-.5,12.3,12.3,0,0,0-1.57-3.65A48.4,48.4,0,0,0,65.18,63.73c2.24-.38,3.38-.86,4-1.49a42.11,42.11,0,0,1,6.71,1.82C78.93,69.14,78.92,77.39,78.81,80.33Z"/><path class="cls-8" d="M61.35,22.35s-8.92-1.19-12.63,5.76-9.23,34.18-4.39,35c2.14.37,7.85,1.81,14.18,1.35,8.7-.64,10.59-1.44,11.22-3.1L75.28,36a10.75,10.75,0,0,0-4.21-9A30.38,30.38,0,0,0,61.35,22.35Z"/><path class="cls-2" d="M75.24,33.75S75.36,49,80.16,50s17.6.64,17.6.64v4.86H70.32Z"/><path class="cls-9" d="M68.6,26.82l1.08-5.41-7-5.34-1.35,6.37S63.53,32.18,68.6,26.82Z"/><path class="cls-6" d="M77.54,11.11s-3.67,1.79-9-1.49a12.75,12.75,0,0,1-4.85,4.24s-1.87-3.14-2.95-.78A4.94,4.94,0,0,0,60.21,15c-3.38-4.35-1-10.09,2.15-13.19,3-2.93,9.43-1.77,13.46-.15C80.1,3.38,80.88.38,80.88.38,86.29,8,77.54,11.11,77.54,11.11Z"/><path class="cls-5" d="M63.65,13.86s-1.87-3.14-2.95-.79c-1.31,2.86.17,4.64,1.94,4.64,0,0,1.4,7.42,8.22,6.9s7.79-11.47,6.68-13.5c0,0-3.67,1.78-9-1.49A12.75,12.75,0,0,1,63.65,13.86Z"/><path class="cls-8" d="M122.71,31.21H94.27a2.94,2.94,0,0,0-2.89,2.36L87.59,52.13h34.47l3.55-17.38A3,3,0,0,0,122.71,31.21Z"/><rect class="cls-10" x="73.54" y="52.13" width="49.82" height="3.26" rx="1.4"/><path class="cls-2" d="M122,52.13H87.22a1.41,1.41,0,0,1,1.4,1.41V54a1.4,1.4,0,0,1-1.4,1.4H122a1.4,1.4,0,0,0,1.4-1.4v-.45A1.41,1.41,0,0,0,122,52.13Z"/><path class="cls-8" d="M76.46,51.14c-5.54-.65-21.08-2.23-23.74-2.51-3.36-.35,3.94-13.89,4.75-18.53s-2.72-4.8-2.72-4.8a5.67,5.67,0,0,0-6,2.81c-3.79,5.74-8,22.52-5.78,26.67a1.48,1.48,0,0,0,1.32.78h32.2Z"/><path class="cls-2" d="M76.46,51.14s-20-1.38-24.32-2c-3.35-.45,3.63-14.33,4.44-19s-2.78-4.44-2.78-4.44a8.55,8.55,0,0,0-3.12.3,5.8,5.8,0,0,1,4.07-.78s3.53.17,2.72,4.8S50.4,48,52.52,48.52C55.12,49.16,70.92,50.49,76.46,51.14Z"/><path class="cls-5" d="M76.46,55.64h7.46a.71.71,0,0,0,.59-1.09c-.7-1.08-1.8-2.59-2.61-2.85a35.94,35.94,0,0,0-5.44.12Z"/><path class="cls-11" d="M77.54,11.11a5.94,5.94,0,0,1-1.69.42c-.09.51-.25,1.48-.34,2.4-.13,1.31.53,5.37.12,5.4a12.42,12.42,0,0,1-1.25,0s-.62,5.88-6.5,4.94l-.15,0a7.48,7.48,0,0,0,3.13.39C77.67,24.08,78.65,13.14,77.54,11.11Z"/><path class="cls-12" d="M163.07,96.47s9.37-4.64,6.82-11.69-4.12-7.35.75-11.32,11.92-13.95,3-14.7-8.47,11.1-15.89,12.75S146.28,104.2,163.07,96.47Z"/><path class="cls-13" d="M155.69,97.17c1.8.84,4.22.76,7.38-.7,0,0,9.37-4.64,6.82-11.69s-4.12-7.35.75-11.32,11.92-13.95,3-14.7a8.29,8.29,0,0,0-2.38.13c2.51,1,5,3.11,1.78,6.94-5.37,6.38-8.25,8.63-7.62,12.75S165.68,91.74,155.69,97.17Z"/><path class="cls-12" d="M147.17,96.25s-8.24-.3-7.79-6.22.68-6.16-4.5-8c-9.15-3.3-1.91-20.87,5.55-9.83,5.17,7.67,7.42,5.95,10.79,6.54S161.94,98.87,147.17,96.25Z"/><path class="cls-14" d="M151.22,78.72c-3.37-.59-5.62,1.13-10.79-6.54-3.9-5.78-7.74-3.72-9.21,0,2.2-.67,5.53-1.07,5.95,2.5.54,4.63,11.38,12.24,11.15,21.7l.43,0c1.57-4.16,3.66-9.55,5.44-14.15C153.23,80.31,152.1,78.88,151.22,78.72Z"/><path class="cls-15" d="M149.09,96s-10.24-10-6.75-11.7,10.34,3.83,6.52-2.14-8.27-15.24-3-13.78,5.67,3.07,5-3.87c-.85-9,4.16-13.61,8.88-10.68S155.72,76.53,159,74.4s6-3.94,6.64-1.35-9.34,12.74-5.63,11c4.62-2.14,5.29,1.68,3.83,4.05S156.28,104.53,149.09,96Z"/><path class="cls-16" d="M163.82,88.12c1.46-2.37.79-6.19-3.83-4.05-3.71,1.72,6.3-8.44,5.63-11s-3.38-.79-6.64,1.35,5.51-17.66.79-20.58a4.83,4.83,0,0,0-6.15.51c2.45.6,4.4,2.57,3,7.88-2.88,11.25-4.63,20.62.62,17.87,5-2.59-5.74,9.35-5.85,18C157.58,101.54,162.52,90.21,163.82,88.12Z"/><path class="cls-8" d="M142,97.16l2,17.93a4.43,4.43,0,0,0,4.4,3.94h11.43a4.44,4.44,0,0,0,4.4-3.94l2-17.93a1.65,1.65,0,0,0-1.64-1.83H143.64A1.65,1.65,0,0,0,142,97.16Z"/><path class="cls-2" d="M164.55,95.33H157.3a1.65,1.65,0,0,1,1.64,1.83l-2,17.93a4.44,4.44,0,0,1-4.4,3.94h7.25a4.44,4.44,0,0,0,4.4-3.94l2-17.93A1.65,1.65,0,0,0,164.55,95.33Z"/><rect class="cls-17" x="17.27" y="55.58" width="127.54" height="5.79" rx="2.49"/><path class="cls-18" d="M142.32,55.58H19.76a2.48,2.48,0,0,0-2.49,2.49v.81a2.36,2.36,0,0,0,.13.75,2.49,2.49,0,0,1,2.36-1.74H142.32a2.49,2.49,0,0,1,2.36,1.74,2.36,2.36,0,0,0,.13-.75v-.81A2.49,2.49,0,0,0,142.32,55.58Z"/><polygon class="cls-15" points="58.5 119.12 54.4 119.12 25.9 61.4 30 61.4 58.5 119.12"/><polygon class="cls-15" points="13.4 119.12 17.49 119.12 45.99 61.4 41.89 61.4 13.4 119.12"/><polygon class="cls-15" points="146.73 119.12 142.63 119.12 114.13 61.4 118.23 61.4 146.73 119.12"/><polygon class="cls-15" points="101.63 119.12 105.72 119.12 134.22 61.4 130.13 61.4 101.63 119.12"/><polygon class="cls-19" points="31.13 63.68 30 61.4 25.9 61.4 27.03 63.68 31.13 63.68"/><polygon class="cls-19" points="44.86 63.68 45.99 61.4 41.89 61.4 40.77 63.68 44.86 63.68"/><polygon class="cls-19" points="119.36 63.68 118.23 61.4 114.13 61.4 115.26 63.68 119.36 63.68"/><polygon class="cls-19" points="133.09 63.68 134.22 61.4 130.13 61.4 129 63.68 133.09 63.68"/><path class="cls-20" d="M113.58,14a3.05,3.05,0,0,1-1-.37l.54-1.22a4.18,4.18,0,0,0,.8.33,3.15,3.15,0,0,0,.84.12,1.23,1.23,0,0,0,.5-.07.21.21,0,0,0,.15-.2c0-.1-.07-.18-.2-.23a4.15,4.15,0,0,0-.64-.17,8,8,0,0,1-1-.26,1.61,1.61,0,0,1-.67-.46,1.21,1.21,0,0,1-.28-.85,1.53,1.53,0,0,1,.26-.86,1.83,1.83,0,0,1,.79-.6A3.16,3.16,0,0,1,115,8.9,4.81,4.81,0,0,1,116,9a3.08,3.08,0,0,1,.87.32l-.5,1.22a3,3,0,0,0-1.39-.37c-.43,0-.65.1-.65.31a.24.24,0,0,0,.19.22,3.4,3.4,0,0,0,.64.16,8.16,8.16,0,0,1,1,.25,1.69,1.69,0,0,1,.68.45,1.21,1.21,0,0,1,.28.85,1.4,1.4,0,0,1-.26.85,1.77,1.77,0,0,1-.79.61,3.16,3.16,0,0,1-1.26.22A5.41,5.41,0,0,1,113.58,14Z"/><path class="cls-20" d="M117.6,9h1.68v5H117.6Z"/><path class="cls-20" d="M123.38,11.37h1.45v2.1a3.42,3.42,0,0,1-1,.47,4.18,4.18,0,0,1-1.14.16,3,3,0,0,1-1.43-.33,2.51,2.51,0,0,1-1-.92,2.71,2.71,0,0,1,0-2.7,2.47,2.47,0,0,1,1-.92,3.13,3.13,0,0,1,1.45-.33,3.36,3.36,0,0,1,1.31.24,2.49,2.49,0,0,1,1,.72l-1.07.94a1.42,1.42,0,0,0-1.11-.54,1.17,1.17,0,0,0-.88.33,1.24,1.24,0,0,0-.33.91,1.29,1.29,0,0,0,.32.9,1.15,1.15,0,0,0,.87.34,1.62,1.62,0,0,0,.61-.12Z"/><path class="cls-20" d="M130.45,9v5h-1.38l-1.89-2.26V14h-1.63V9h1.38l1.89,2.26V9Z"/><path class="cls-20" d="M134,13.48a2.32,2.32,0,0,1-.64-1.73V9H135V11.7a1.28,1.28,0,0,0,.19.79.68.68,0,0,0,.57.25.65.65,0,0,0,.56-.25,1.27,1.27,0,0,0,.2-.79V9h1.65v2.74a2.28,2.28,0,0,1-.64,1.73,2.88,2.88,0,0,1-3.57,0Z"/><path class="cls-20" d="M142.56,9.24a1.82,1.82,0,0,1,.79.65,1.85,1.85,0,0,1,.28,1,1.8,1.8,0,0,1-.28,1,1.77,1.77,0,0,1-.79.66,3,3,0,0,1-1.2.22h-.72V14H139V9h2.39A3,3,0,0,1,142.56,9.24Zm-.8,2.08a.54.54,0,0,0,.18-.43.52.52,0,0,0-.18-.43.74.74,0,0,0-.51-.15h-.61v1.16h.61A.74.74,0,0,0,141.76,11.32Z"/></g></g></svg>