<svg xmlns="http://www.w3.org/2000/svg" viewBox="0 0 1000.008 775.972" height="776" width="1001"><g transform="matrix(8.583761 0 0 8.583761 1417.70459 -1887.453247)"><path d="M-143.96 310.086v-6c0-2.3-1.4-3.8-3.8-3.8-1.2 0-2.5.4-3.4 1.7-.7-1.1-1.7-1.7-3.2-1.7-1 0-2 .3-2.8 1.4v-1.2h-2.1v9.6h2.1v-5.3c0-1.7.9-2.5 2.3-2.5s2.1.9 2.1 2.5v5.3h2.1v-5.3c0-1.7 1-2.5 2.3-2.5 1.4 0 2.1.9 2.1 2.5v5.3h2.3zm31.1-9.6h-3.4v-2.9h-2.1v2.9h-1.9v1.9h1.9v4.4c0 2.2.9 3.5 3.3 3.5.9 0 1.9-.3 2.6-.7l-.6-1.8c-.6.4-1.3.5-1.8.5-1 0-1.4-.6-1.4-1.6v-4.3h3.4v-1.9zm17.8-.2c-1.2 0-2 .6-2.5 1.4v-1.2h-2.1v9.6h2.1v-5.4c0-1.6.7-2.5 2-2.5.4 0 .9.1 1.3.2l.6-2c-.4-.1-1-.1-1.4-.1zm-26.9 1c-1-.7-2.4-1-3.9-1-2.4 0-4 1.2-4 3.1 0 1.6 1.2 2.5 3.3 2.8l1 .1c1.1.2 1.7.5 1.7 1 0 .7-.8 1.2-2.2 1.2a5.52 5.52 0 0 1-3.2-1l-1 1.6c1.1.8 2.6 1.2 4.1 1.2 2.8 0 4.4-1.3 4.4-3.1 0-1.7-1.3-2.6-3.3-2.9l-1-.1c-.9-.1-1.6-.3-1.6-.9 0-.7.7-1.1 1.8-1.1 1.2 0 2.4.5 3 .8l.9-1.7zm55.8-1c-1.2 0-2 .6-2.5 1.4v-1.2h-2.1v9.6h2.1v-5.4c0-1.6.7-2.5 2-2.5.4 0 .9.1 1.3.2l.6-2c-.4-.1-1-.1-1.4-.1zm-26.8 5c0 2.9 2 5 5.1 5 1.4 0 2.4-.3 3.4-1.1l-1-1.7c-.8.6-1.6.9-2.5.9-1.7 0-2.9-1.2-2.9-3.1 0-1.8 1.2-3 2.9-3.1.9 0 1.7.3 2.5.9l1-1.7c-1-.8-2-1.1-3.4-1.1-3.1 0-5.1 2.1-5.1 5zm19.4 0v-4.8h-2.1v1.2c-.7-.9-1.7-1.4-3-1.4-2.7 0-4.8 2.1-4.8 5s2.1 5 4.8 5c1.4 0 2.4-.5 3-1.4v1.2h2.1v-4.8zm-7.7 0c0-1.7 1.1-3.1 2.9-3.1 1.7 0 2.9 1.3 2.9 3.1 0 1.7-1.2 3.1-2.9 3.1-1.8-.1-2.9-1.4-2.9-3.1zm-25.1-5c-2.8 0-4.8 2-4.8 5s2 5 4.9 5c1.4 0 2.8-.4 3.9-1.3l-1-1.5c-.8.6-1.8 1-2.8 1-1.3 0-2.6-.6-2.9-2.3h7.1v-.8c.1-3.1-1.7-5.1-4.4-5.1zm0 1.8c1.3 0 2.2.8 2.4 2.3h-5c.2-1.3 1.1-2.3 2.6-2.3zm52.1 3.2v-8.6h-2.1v5c-.7-.9-1.7-1.4-3-1.4-2.7 0-4.8 2.1-4.8 5s2.1 5 4.8 5c1.4 0 2.4-.5 3-1.4v1.2h2.1v-4.8zm-7.7 0c0-1.7 1.1-3.1 2.9-3.1 1.7 0 2.9 1.3 2.9 3.1 0 1.7-1.2 3.1-2.9 3.1-1.8-.1-2.9-1.4-2.9-3.1zm-70.2 0v-4.8h-2.1v1.2c-.7-.9-1.7-1.4-3-1.4-2.7 0-4.8 2.1-4.8 5s2.1 5 4.8 5c1.4 0 2.4-.5 3-1.4v1.2h2.1v-4.8zm-7.8 0c0-1.7 1.1-3.1 2.9-3.1 1.7 0 2.9 1.3 2.9 3.1 0 1.7-1.2 3.1-2.9 3.1-1.8-.1-2.9-1.4-2.9-3.1z" fill="#fff"/><path d="M-122.66 227.586h31.5v56.6h-31.5z" fill="#ff5f00"/><path d="M-120.66 255.886c0-11.5 5.4-21.7 13.7-28.3-6.1-4.8-13.8-7.7-22.2-7.7-19.9 0-36 16.1-36 36s16.1 36 36 36c8.4 0 16.1-2.9 22.2-7.7-8.3-6.5-13.7-16.8-13.7-28.3z" fill="#eb001b"/><path d="M-48.66 255.886c0 19.9-16.1 36-36 36-8.4 0-16.1-2.9-22.2-7.7 8.4-6.6 13.7-16.8 13.7-28.3s-5.4-21.7-13.7-28.3c6.1-4.8 13.8-7.7 22.2-7.7 19.9 0 36 16.2 36 36z" fill="#f79e1b"/></g></svg>