<svg width="42" height="15" viewBox="0 0 42 15" fill="none" xmlns="http://www.w3.org/2000/svg">
<path fill-rule="evenodd" clip-rule="evenodd" d="M20.3946 0.842978L17.6466 14.033H14.3238L17.0717 0.842978H20.3946ZM34.4061 9.37067L36.1686 4.42966L37.1856 9.37067H34.4032H34.4061ZM38.1363 14.0233H41.2222L38.5438 0.833258H35.701C35.0763 0.825158 34.5106 1.21104 34.2765 1.80526L29.2544 14.0201H32.7449L33.4237 12.0372H37.6973L38.1363 14.0233ZM29.4597 9.71736C29.4597 6.23759 24.7787 6.03023 24.8135 4.49771C24.8135 4.0117 25.256 3.5257 26.238 3.38314C27.3643 3.27428 28.4986 3.47678 29.5229 3.96958L30.0914 1.1929C29.0958 0.80021 28.0377 0.599329 26.9708 0.599977C23.6795 0.599977 21.3741 2.4079 21.339 4.95131C21.3043 6.86615 23.0004 7.90943 24.2575 8.53475C25.5147 9.16008 25.9884 9.61368 25.9884 10.1548C25.9884 11.0263 24.9366 11.4508 23.9859 11.4508C22.792 11.4845 21.6103 11.1961 20.5592 10.6148L19.9493 13.5017C21.1246 13.9854 22.382 14.2226 23.6479 14.1983C27.1413 14.2339 29.4158 12.4584 29.4502 9.70764L29.4597 9.71736ZM15.6473 0.842978L10.2527 14.033H6.71797L4.07108 3.49006C3.90052 2.84206 3.75523 2.6185 3.29123 2.3431C2.24575 1.82664 1.1393 1.4521 0 1.22854L0.0849656 0.842978H5.75176C6.51677 0.84719 7.16491 1.42391 7.27704 2.20054L8.66681 9.82104L12.1412 0.842978H15.6694H15.6473Z" fill="white"/>
</svg>
